<?xml version="1.0" encoding="UTF-8" standalone="no"?><!DOCTYPE svg PUBLIC "-//W3C//DTD SVG 1.1//EN" "http://www.w3.org/Graphics/SVG/1.1/DTD/svg11.dtd"><!-- Generated by graphviz version 2.40.1 (20161225.0304)
 --><!-- Title: G Pages: 1 --><svg xmlns="http://www.w3.org/2000/svg" xmlns:xlink="http://www.w3.org/1999/xlink" width="484pt" height="578pt" viewBox="0.00 0.00 484.00 577.88">
<g id="graph0" class="graph" transform="scale(1 1) rotate(0) translate(4 573.8768)">
<title>G</title>
<polygon fill="#ffffff" stroke="transparent" points="-4,4 -4,-573.8768 480,-573.8768 480,4 -4,4"/>
<g id="clust1" class="cluster">
<title>cluster_0</title>
<polygon fill="none" stroke="#000000" points="197,-476 197,-528 361,-528 361,-476 197,-476"/>
</g>
<g id="clust3" class="cluster">
<title>cluster_1</title>
<polygon fill="none" stroke="#000000" points="64,-361 64,-413 448,-413 448,-361 64,-361"/>
</g>
<g id="clust5" class="cluster">
<title>cluster_2</title>
<polygon fill="none" stroke="#000000" points="151,-238 151,-298 468,-298 468,-238 151,-238"/>
</g>
<g id="clust7" class="cluster">
<title>cluster_3</title>
<polygon fill="none" stroke="#000000" points="207,-123 207,-175 421,-175 421,-123 207,-123"/>
</g>
<g id="clust9" class="cluster">
<title>cluster_4</title>
<polygon fill="none" stroke="#000000" points="351,-8 351,-60 421,-60 421,-8 351,-8"/>
</g>
<!-- x0 -->
<g id="node1" class="node">
<title>x0</title>
<polygon fill="#d3d3d3" stroke="#000000" points="54,-520 0,-520 0,-484 54,-484 54,-520"/>
<text text-anchor="middle" x="27" y="-497.8" font-family="Times,serif" font-size="14.00" fill="#000000">דור 0</text>
</g>
<!-- x1 -->
<g id="node2" class="node">
<title>x1</title>
<polygon fill="#d3d3d3" stroke="#000000" points="54,-405 0,-405 0,-369 54,-369 54,-405"/>
<text text-anchor="middle" x="27" y="-382.8" font-family="Times,serif" font-size="14.00" fill="#000000">דור 1</text>
</g>
<!-- x0&#45;&#45;x1 -->
<g id="edge1" class="edge">
<title>x0--x1</title>
<path fill="none" stroke="#000000" d="M27,-483.7779C27,-462.2444 27,-426.6331 27,-405.1368"/>
</g>
<!-- x2 -->
<g id="node3" class="node">
<title>x2</title>
<polygon fill="#d3d3d3" stroke="#000000" points="54,-286 0,-286 0,-250 54,-250 54,-286"/>
<text text-anchor="middle" x="27" y="-263.8" font-family="Times,serif" font-size="14.00" fill="#000000">דור 2</text>
</g>
<!-- x1&#45;&#45;x2 -->
<g id="edge2" class="edge">
<title>x1--x2</title>
<path fill="none" stroke="#000000" d="M27,-368.9265C27,-346.5598 27,-308.6885 27,-286.2436"/>
</g>
<!-- x3 -->
<g id="node4" class="node">
<title>x3</title>
<polygon fill="#d3d3d3" stroke="#000000" points="54,-167 0,-167 0,-131 54,-131 54,-167"/>
<text text-anchor="middle" x="27" y="-144.8" font-family="Times,serif" font-size="14.00" fill="#000000">דור 3</text>
</g>
<!-- x2&#45;&#45;x3 -->
<g id="edge3" class="edge">
<title>x2--x3</title>
<path fill="none" stroke="#000000" d="M27,-249.9265C27,-227.5598 27,-189.6885 27,-167.2436"/>
</g>
<!-- x4 -->
<g id="node5" class="node">
<title>x4</title>
<polygon fill="#d3d3d3" stroke="#000000" points="54,-52 0,-52 0,-16 54,-16 54,-52"/>
<text text-anchor="middle" x="27" y="-29.8" font-family="Times,serif" font-size="14.00" fill="#000000">דור 4</text>
</g>
<!-- x3&#45;&#45;x4 -->
<g id="edge4" class="edge">
<title>x3--x4</title>
<path fill="none" stroke="#000000" d="M27,-130.7779C27,-109.2444 27,-73.6331 27,-52.1368"/>
</g>
<!-- e0 -->
<g id="node6" class="node">
<title>e0</title>
<polygon fill="#87cefa" stroke="#000000" points="259,-520 205,-520 205,-484 259,-484 259,-520"/>
<text text-anchor="middle" x="232" y="-497.8" font-family="Times,serif" font-size="14.00" fill="#000000">סבו</text>
</g>
<!-- e1 -->
<g id="node7" class="node">
<title>e1</title>
<polygon fill="#ffc0cb" stroke="#000000" points="353,-520 299,-520 299,-484 353,-484 353,-520"/>
<text text-anchor="middle" x="326" y="-497.8" font-family="Times,serif" font-size="14.00" fill="#000000">סבתו</text>
</g>
<!-- e0&#45;&#45;e1 -->
<!-- d2 -->
<g id="node8" class="node">
<title>d2</title>
<ellipse fill="#000000" stroke="#000000" cx="279" cy="-502" rx="1.8" ry="1.8"/>
</g>
<!-- e0&#45;&#45;d2 -->
<g id="edge5" class="edge">
<title>e0--d2</title>
<path fill="none" stroke="#000000" d="M259.1719,-502C265.1616,-502 271.1514,-502 277.1411,-502"/>
</g>
<!-- d2&#45;&#45;e1 -->
<g id="edge6" class="edge">
<title>d2--e1</title>
<path fill="none" stroke="#000000" d="M280.8359,-502C286.8343,-502 292.8326,-502 298.831,-502"/>
</g>
<!-- a0 -->
<g id="node10" class="node">
<title>a0</title>
<polygon fill="#87cefa" stroke="#000000" points="346,-405 292,-405 292,-369 346,-369 346,-405"/>
<text text-anchor="middle" x="319" y="-382.8" font-family="Times,serif" font-size="14.00" fill="#000000">אביו</text>
</g>
<!-- d2&#45;&#45;a0 -->
<g id="edge7" class="edge">
<title>d2--a0</title>
<path fill="none" stroke="#000000" d="M279.6943,-500.004C283.5535,-488.9088 302.554,-434.2823 312.6564,-405.238"/>
</g>
<!-- a2 -->
<g id="node12" class="node">
<title>a2</title>
<polygon fill="#87cefa" stroke="#000000" points="274.0018,-405 205.9982,-405 205.9982,-369 274.0018,-369 274.0018,-405"/>
<text text-anchor="middle" x="240" y="-382.8" font-family="Times,serif" font-size="14.00" fill="#000000">אחי אביו</text>
</g>
<!-- d2&#45;&#45;a2 -->
<g id="edge8" class="edge">
<title>d2--a2</title>
<path fill="none" stroke="#000000" d="M278.3231,-500.004C274.5604,-488.9088 256.0349,-434.2823 246.1851,-405.238"/>
</g>
<!-- d0 -->
<g id="node9" class="node">
<title>d0</title>
<ellipse fill="#000000" stroke="#000000" cx="366" cy="-387" rx="1.8" ry="1.8"/>
</g>
<!-- a1 -->
<g id="node11" class="node">
<title>a1</title>
<polygon fill="#ffc0cb" stroke="#000000" points="440,-405 386,-405 386,-369 440,-369 440,-405"/>
<text text-anchor="middle" x="413" y="-382.8" font-family="Times,serif" font-size="14.00" fill="#000000">אמו</text>
</g>
<!-- d0&#45;&#45;a1 -->
<g id="edge10" class="edge">
<title>d0--a1</title>
<path fill="none" stroke="#000000" d="M367.8359,-387C373.8343,-387 379.8326,-387 385.831,-387"/>
</g>
<!-- b0 -->
<g id="node15" class="node">
<title>b0</title>
<polygon fill="#87cefa" stroke="#000000" points="362.7341,-260.5442 362.7341,-275.4558 346.4878,-286 323.5122,-286 307.2659,-275.4558 307.2659,-260.5442 323.5122,-250 346.4878,-250 362.7341,-260.5442"/>
<polygon fill="none" stroke="#000000" points="366.75,-258.3763 366.75,-277.6237 347.6807,-290 322.3193,-290 303.25,-277.6237 303.25,-258.3763 322.3193,-246 347.6807,-246 366.75,-258.3763"/>
<text text-anchor="middle" x="335" y="-263.8" font-family="Times,serif" font-size="14.00" fill="#000000">הוא</text>
</g>
<!-- d0&#45;&#45;b0 -->
<g id="edge11" class="edge">
<title>d0--b0</title>
<path fill="none" stroke="#000000" d="M365.4619,-384.9345C362.5756,-373.8546 348.7605,-320.8226 340.7616,-290.1171"/>
</g>
<!-- a0&#45;&#45;d0 -->
<g id="edge9" class="edge">
<title>a0--d0</title>
<path fill="none" stroke="#000000" d="M346.1719,-387C352.1616,-387 358.1514,-387 364.1411,-387"/>
</g>
<!-- a0&#45;&#45;a1 -->
<!-- a2&#45;&#45;a0 -->
<!-- a5 -->
<g id="node13" class="node">
<title>a5</title>
<polygon fill="#ffc0cb" stroke="#000000" points="166.2336,-405 71.7664,-405 71.7664,-369 166.2336,-369 166.2336,-405"/>
<text text-anchor="middle" x="119" y="-382.8" font-family="Times,serif" font-size="14.00" fill="#000000">אשת אחי אביו</text>
</g>
<!-- a5&#45;&#45;a2 -->
<!-- d6 -->
<g id="node14" class="node">
<title>d6</title>
<ellipse fill="#000000" stroke="#000000" cx="186" cy="-387" rx="1.8" ry="1.8"/>
</g>
<!-- a5&#45;&#45;d6 -->
<g id="edge12" class="edge">
<title>a5--d6</title>
<path fill="none" stroke="#000000" d="M166.3711,-387C172.3007,-387 178.2302,-387 184.1598,-387"/>
</g>
<!-- d6&#45;&#45;a2 -->
<g id="edge13" class="edge">
<title>d6--a2</title>
<path fill="none" stroke="#000000" d="M188.1094,-387C194.0552,-387 200.001,-387 205.9468,-387"/>
</g>
<!-- b8 -->
<g id="node18" class="node">
<title>b8</title>
<polygon fill="#ffc0cb" stroke="#000000" points="213,-286 159,-286 159,-250 213,-250 213,-286"/>
<text text-anchor="middle" x="186" y="-263.8" font-family="Times,serif" font-size="14.00" fill="#000000">בת</text>
</g>
<!-- d6&#45;&#45;b8 -->
<g id="edge14" class="edge">
<title>d6--b8</title>
<path fill="none" stroke="#000000" d="M186,-384.9345C186,-373.3917 186,-316.3178 186,-286.3899"/>
</g>
<!-- b9 -->
<g id="node19" class="node">
<title>b9</title>
<polygon fill="#87cefa" stroke="#000000" points="285,-286 231,-286 231,-250 285,-250 285,-286"/>
<text text-anchor="middle" x="258" y="-263.8" font-family="Times,serif" font-size="14.00" fill="#000000">בן</text>
</g>
<!-- d6&#45;&#45;b9 -->
<g id="edge15" class="edge">
<title>d6--b9</title>
<path fill="none" stroke="#000000" d="M186.6861,-385.0533C188.2664,-380.6523 192.3834,-369.6473 197,-361 211.4592,-333.9166 231.4886,-304.6004 244.5912,-286.2726"/>
</g>
<!-- b3 -->
<g id="node16" class="node">
<title>b3</title>
<polygon fill="#ffc0cb" stroke="#000000" points="460,-286 406,-286 406,-250 460,-250 460,-286"/>
<text text-anchor="middle" x="433" y="-263.8" font-family="Times,serif" font-size="14.00" fill="#000000">אשתו</text>
</g>
<!-- b0&#45;&#45;b3 -->
<!-- d1 -->
<g id="node17" class="node">
<title>d1</title>
<ellipse fill="#000000" stroke="#000000" cx="386" cy="-268" rx="1.8" ry="1.8"/>
</g>
<!-- b0&#45;&#45;d1 -->
<g id="edge16" class="edge">
<title>b0--d1</title>
<path fill="none" stroke="#000000" d="M366.875,-268C372.5527,-268 378.2305,-268 383.9082,-268"/>
</g>
<!-- d1&#45;&#45;b3 -->
<g id="edge17" class="edge">
<title>d1--b3</title>
<path fill="none" stroke="#000000" d="M387.8359,-268C393.8343,-268 399.8326,-268 405.831,-268"/>
</g>
<!-- c1 -->
<g id="node21" class="node">
<title>c1</title>
<polygon fill="#ffc0cb" stroke="#000000" points="413,-167 359,-167 359,-131 413,-131 413,-167"/>
<text text-anchor="middle" x="386" y="-144.8" font-family="Times,serif" font-size="14.00" fill="#000000">בתו</text>
</g>
<!-- d1&#45;&#45;c1 -->
<g id="edge18" class="edge">
<title>d1--c1</title>
<path fill="none" stroke="#000000" d="M386,-265.9345C386,-254.3917 386,-197.3178 386,-167.3899"/>
</g>
<!-- c2 -->
<g id="node22" class="node">
<title>c2</title>
<polygon fill="#87cefa" stroke="#000000" points="341,-167 287,-167 287,-131 341,-131 341,-167"/>
<text text-anchor="middle" x="314" y="-144.8" font-family="Times,serif" font-size="14.00" fill="#000000">בנו</text>
</g>
<!-- d1&#45;&#45;c2 -->
<g id="edge19" class="edge">
<title>d1--c2</title>
<path fill="none" stroke="#000000" d="M385.5516,-266.0285C384.3908,-261.1169 381.0233,-248.01 376,-238 362.8242,-211.7442 342.6835,-184.4386 328.959,-167.1124"/>
</g>
<!-- b8&#45;&#45;b9 -->
<!-- c0 -->
<g id="node20" class="node">
<title>c0</title>
<polygon fill="#87cefa" stroke="#000000" points="269,-167 215,-167 215,-131 269,-131 269,-167"/>
<text text-anchor="middle" x="242" y="-144.8" font-family="Times,serif" font-size="14.00" fill="#000000">חתן</text>
</g>
<!-- b8&#45;&#45;c0 -->
<g id="edge21" class="edge">
<title>b8--c0</title>
<path fill="none" stroke="#000000" d="M194.5052,-249.9265C205.0307,-227.5598 222.8525,-189.6885 233.4148,-167.2436"/>
</g>
<!-- b9&#45;&#45;b0 -->
<!-- c0&#45;&#45;c2 -->
<!-- f0 -->
<g id="node23" class="node">
<title>f0</title>
<polygon fill="#87cefa" stroke="#000000" points="413,-52 359,-52 359,-16 413,-16 413,-52"/>
<text text-anchor="middle" x="386" y="-29.8" font-family="Times,serif" font-size="14.00" fill="#000000">חתנו</text>
</g>
<!-- c1&#45;&#45;f0 -->
<g id="edge20" class="edge">
<title>c1--f0</title>
<path fill="none" stroke="#000000" d="M386,-130.7779C386,-109.2444 386,-73.6331 386,-52.1368"/>
</g>
<!-- c2&#45;&#45;c1 -->
</g>
</svg>