<?xml version="1.0" encoding="UTF-8" standalone="no"?><!DOCTYPE svg PUBLIC "-//W3C//DTD SVG 1.1//EN" "http://www.w3.org/Graphics/SVG/1.1/DTD/svg11.dtd"><!-- Generated by graphviz version 2.40.1 (20161225.0304)
 --><!-- Title: G Pages: 1 --><svg xmlns="http://www.w3.org/2000/svg" xmlns:xlink="http://www.w3.org/1999/xlink" width="1094pt" height="463pt" viewBox="0.00 0.00 1094.00 462.88">
<g id="graph0" class="graph" transform="scale(1 1) rotate(0) translate(4 458.8768)">
<title>G</title>
<polygon fill="#ffffff" stroke="transparent" points="-4,4 -4,-458.8768 1090,-458.8768 1090,4 -4,4"/>
<g id="clust1" class="cluster">
<title>cluster_0</title>
<polygon fill="none" stroke="#000000" points="253,-361 253,-413 583,-413 583,-361 253,-361"/>
</g>
<g id="clust3" class="cluster">
<title>cluster_1</title>
<polygon fill="none" stroke="#000000" points="8,-246 8,-298 1078,-298 1078,-246 8,-246"/>
</g>
<g id="clust5" class="cluster">
<title>cluster_2</title>
<polygon fill="none" stroke="#000000" points="189,-123 189,-183 934,-183 934,-123 189,-123"/>
</g>
<g id="clust7" class="cluster">
<title>cluster_3</title>
<polygon fill="none" stroke="#000000" points="605,-8 605,-60 675,-60 675,-8 605,-8"/>
</g>
<!-- e0 -->
<g id="node1" class="node">
<title>e0</title>
<polygon fill="#87cefa" stroke="#000000" points="315,-405 261,-405 261,-369 315,-369 315,-405"/>
<text text-anchor="middle" x="288" y="-382.8" font-family="Times,serif" font-size="14.00" fill="#000000">סבו</text>
</g>
<!-- e1 -->
<g id="node2" class="node">
<title>e1</title>
<polygon fill="#ffc0cb" stroke="#000000" points="409,-405 355,-405 355,-369 409,-369 409,-405"/>
<text text-anchor="middle" x="382" y="-382.8" font-family="Times,serif" font-size="14.00" fill="#000000">סבתו</text>
</g>
<!-- e0&#45;&#45;e1 -->
<!-- d2 -->
<g id="node5" class="node">
<title>d2</title>
<ellipse fill="#000000" stroke="#000000" cx="335" cy="-387" rx="1.8" ry="1.8"/>
</g>
<!-- e0&#45;&#45;d2 -->
<g id="edge1" class="edge">
<title>e0--d2</title>
<path fill="none" stroke="#000000" d="M315.1719,-387C321.1616,-387 327.1514,-387 333.1411,-387"/>
</g>
<!-- e2 -->
<g id="node3" class="node">
<title>e2</title>
<polygon fill="#87cefa" stroke="#000000" points="481,-405 427,-405 427,-369 481,-369 481,-405"/>
<text text-anchor="middle" x="454" y="-382.8" font-family="Times,serif" font-size="14.00" fill="#000000">סבו</text>
</g>
<!-- e1&#45;&#45;e2 -->
<!-- e3 -->
<g id="node4" class="node">
<title>e3</title>
<polygon fill="#ffc0cb" stroke="#000000" points="575,-405 521,-405 521,-369 575,-369 575,-405"/>
<text text-anchor="middle" x="548" y="-382.8" font-family="Times,serif" font-size="14.00" fill="#000000">סבתו</text>
</g>
<!-- e2&#45;&#45;e3 -->
<!-- d3 -->
<g id="node6" class="node">
<title>d3</title>
<ellipse fill="#000000" stroke="#000000" cx="501" cy="-387" rx="1.8" ry="1.8"/>
</g>
<!-- e2&#45;&#45;d3 -->
<g id="edge6" class="edge">
<title>e2--d3</title>
<path fill="none" stroke="#000000" d="M481.1719,-387C487.1616,-387 493.1514,-387 499.1411,-387"/>
</g>
<!-- d2&#45;&#45;e1 -->
<g id="edge2" class="edge">
<title>d2--e1</title>
<path fill="none" stroke="#000000" d="M336.8359,-387C342.8343,-387 348.8326,-387 354.831,-387"/>
</g>
<!-- a0 -->
<g id="node8" class="node">
<title>a0</title>
<polygon fill="#87cefa" stroke="#000000" points="398,-290 344,-290 344,-254 398,-254 398,-290"/>
<text text-anchor="middle" x="371" y="-267.8" font-family="Times,serif" font-size="14.00" fill="#000000">אביו</text>
</g>
<!-- d2&#45;&#45;a0 -->
<g id="edge3" class="edge">
<title>d2--a0</title>
<path fill="none" stroke="#000000" d="M335.6248,-385.004C339.0981,-373.9088 356.1986,-319.2823 365.2907,-290.238"/>
</g>
<!-- a2 -->
<g id="node10" class="node">
<title>a2</title>
<polygon fill="#87cefa" stroke="#ff0000" points="326.0018,-290 257.9982,-290 257.9982,-254 326.0018,-254 326.0018,-290"/>
<text text-anchor="middle" x="292" y="-267.8" font-family="Times,serif" font-size="14.00" fill="#000000">אחי אביו</text>
</g>
<!-- d2&#45;&#45;a2 -->
<g id="edge4" class="edge">
<title>d2--a2</title>
<path fill="none" stroke="#000000" d="M334.2537,-385.004C330.105,-373.9088 309.6795,-319.2823 298.8194,-290.238"/>
</g>
<!-- a5 -->
<g id="node13" class="node">
<title>a5</title>
<polygon fill="#ffc0cb" stroke="#000000" points="240.2149,-290 161.7851,-290 161.7851,-254 240.2149,-254 240.2149,-290"/>
<text text-anchor="middle" x="201" y="-267.8" font-family="Times,serif" font-size="14.00" fill="#000000">אחות אביו</text>
</g>
<!-- d2&#45;&#45;a5 -->
<g id="edge5" class="edge">
<title>d2--a5</title>
<path fill="none" stroke="#000000" d="M334.5936,-385.1858C333.5149,-380.6882 330.2272,-368.8226 324,-361 299.7863,-330.5829 262.6423,-305.671 235.5065,-290.0182"/>
</g>
<!-- d3&#45;&#45;e3 -->
<g id="edge7" class="edge">
<title>d3--e3</title>
<path fill="none" stroke="#000000" d="M502.8359,-387C508.8343,-387 514.8326,-387 520.831,-387"/>
</g>
<!-- a1 -->
<g id="node9" class="node">
<title>a1</title>
<polygon fill="#ffc0cb" stroke="#000000" points="492,-290 438,-290 438,-254 492,-254 492,-290"/>
<text text-anchor="middle" x="465" y="-267.8" font-family="Times,serif" font-size="14.00" fill="#000000">אמו</text>
</g>
<!-- d3&#45;&#45;a1 -->
<g id="edge8" class="edge">
<title>d3--a1</title>
<path fill="none" stroke="#000000" d="M500.3752,-385.004C496.9019,-373.9088 479.8014,-319.2823 470.7093,-290.238"/>
</g>
<!-- a3 -->
<g id="node11" class="node">
<title>a3</title>
<polygon fill="#87cefa" stroke="#ff0000" points="842.502,-290 781.498,-290 781.498,-254 842.502,-254 842.502,-290"/>
<text text-anchor="middle" x="812" y="-267.8" font-family="Times,serif" font-size="14.00" fill="#000000">אחי אמו</text>
</g>
<!-- d3&#45;&#45;a3 -->
<g id="edge9" class="edge">
<title>d3--a3</title>
<path fill="none" stroke="#000000" d="M501.2339,-385.0187C501.919,-380.1398 504.3794,-367.4729 512,-361 602.6214,-284.027 662.8155,-345.0726 772,-298 777.0198,-295.8358 782.11,-293.0594 786.9006,-290.1302"/>
</g>
<!-- a4 -->
<g id="node12" class="node">
<title>a4</title>
<polygon fill="#ffc0cb" stroke="#000000" points="931.7149,-290 860.2851,-290 860.2851,-254 931.7149,-254 931.7149,-290"/>
<text text-anchor="middle" x="896" y="-267.8" font-family="Times,serif" font-size="14.00" fill="#000000">אחות אמו</text>
</g>
<!-- d3&#45;&#45;a4 -->
<g id="edge10" class="edge">
<title>d3--a4</title>
<path fill="none" stroke="#000000" d="M501.2124,-384.9927C501.8485,-380.0545 504.2059,-367.2628 512,-361 631.8003,-264.7376 708.0852,-351.9174 852,-298 857.65,-295.8832 863.403,-293.0565 868.8055,-290.0464"/>
</g>
<!-- d0 -->
<g id="node7" class="node">
<title>d0</title>
<ellipse fill="#000000" stroke="#000000" cx="418" cy="-272" rx="1.8" ry="1.8"/>
</g>
<!-- d0&#45;&#45;a1 -->
<g id="edge12" class="edge">
<title>d0--a1</title>
<path fill="none" stroke="#000000" d="M419.8359,-272C425.8343,-272 431.8326,-272 437.831,-272"/>
</g>
<!-- b0 -->
<g id="node24" class="node">
<title>b0</title>
<polygon fill="#87cefa" stroke="#000000" points="522.7341,-145.5442 522.7341,-160.4558 506.4878,-171 483.5122,-171 467.2659,-160.4558 467.2659,-145.5442 483.5122,-135 506.4878,-135 522.7341,-145.5442"/>
<polygon fill="none" stroke="#000000" points="526.75,-143.3763 526.75,-162.6237 507.6807,-175 482.3193,-175 463.25,-162.6237 463.25,-143.3763 482.3193,-131 507.6807,-131 526.75,-143.3763"/>
<text text-anchor="middle" x="495" y="-148.8" font-family="Times,serif" font-size="14.00" fill="#000000">הוא</text>
</g>
<!-- d0&#45;&#45;b0 -->
<g id="edge13" class="edge">
<title>d0--b0</title>
<path fill="none" stroke="#000000" d="M418.6634,-270.0409C420.1973,-265.6147 424.2256,-254.5612 429,-246 443.8502,-219.3712 464.7177,-191.1256 478.9889,-172.8447"/>
</g>
<!-- b2 -->
<g id="node26" class="node">
<title>b2</title>
<polygon fill="#87cefa" stroke="#ff0000" points="445,-171 391,-171 391,-135 445,-135 445,-171"/>
<text text-anchor="middle" x="418" y="-148.8" font-family="Times,serif" font-size="14.00" fill="#000000">אחיו</text>
</g>
<!-- d0&#45;&#45;b2 -->
<g id="edge14" class="edge">
<title>d0--b2</title>
<path fill="none" stroke="#000000" d="M418,-269.9345C418,-258.3917 418,-201.3178 418,-171.3899"/>
</g>
<!-- b3 -->
<g id="node27" class="node">
<title>b3</title>
<polygon fill="#ffc0cb" stroke="#000000" points="373,-171 319,-171 319,-135 373,-135 373,-171"/>
<text text-anchor="middle" x="346" y="-148.8" font-family="Times,serif" font-size="14.00" fill="#000000">אחותו</text>
</g>
<!-- d0&#45;&#45;b3 -->
<g id="edge15" class="edge">
<title>d0--b3</title>
<path fill="none" stroke="#000000" d="M417.3139,-270.0533C415.7336,-265.6523 411.6166,-254.6473 407,-246 392.5408,-218.9166 372.5114,-189.6004 359.4088,-171.2726"/>
</g>
<!-- a0&#45;&#45;d0 -->
<g id="edge11" class="edge">
<title>a0--d0</title>
<path fill="none" stroke="#000000" d="M398.1719,-272C404.1616,-272 410.1514,-272 416.1411,-272"/>
</g>
<!-- a0&#45;&#45;a1 -->
<!-- a0&#45;&#45;a1 -->
<!-- a10 -->
<g id="node21" class="node">
<title>a10</title>
<polygon fill="#87cefa" stroke="#ff0000" points="596.5,-290 531.5,-290 531.5,-254 596.5,-254 596.5,-290"/>
<text text-anchor="middle" x="564" y="-267.8" font-family="Times,serif" font-size="14.00" fill="#000000">בעל אמו</text>
</g>
<!-- a1&#45;&#45;a10 -->
<!-- d12 -->
<g id="node22" class="node">
<title>d12</title>
<ellipse fill="#000000" stroke="#000000" cx="512" cy="-272" rx="1.8" ry="1.8"/>
</g>
<!-- a1&#45;&#45;d12 -->
<g id="edge33" class="edge">
<title>a1--d12</title>
<path fill="none" stroke="#000000" d="M492.1719,-272C498.1616,-272 504.1514,-272 510.1411,-272"/>
</g>
<!-- a2&#45;&#45;a0 -->
<!-- a3&#45;&#45;a4 -->
<!-- a7 -->
<g id="node15" class="node">
<title>a7</title>
<polygon fill="#87cefa" stroke="#ff0000" points="1069.7148,-290 970.2852,-290 970.2852,-254 1069.7148,-254 1069.7148,-290"/>
<text text-anchor="middle" x="1020" y="-267.8" font-family="Times,serif" font-size="14.00" fill="#000000">בעל אחות אמו</text>
</g>
<!-- a4&#45;&#45;a7 -->
<!-- d7 -->
<g id="node17" class="node">
<title>d7</title>
<ellipse fill="#000000" stroke="#000000" cx="951" cy="-272" rx="1.8" ry="1.8"/>
</g>
<!-- a4&#45;&#45;d7 -->
<g id="edge26" class="edge">
<title>a4--d7</title>
<path fill="none" stroke="#000000" d="M931.6641,-272C937.5051,-272 943.3462,-272 949.1873,-272"/>
</g>
<!-- a5&#45;&#45;a2 -->
<!-- a6 -->
<g id="node14" class="node">
<title>a6</title>
<polygon fill="#87cefa" stroke="#ff0000" points="122.2148,-290 15.7852,-290 15.7852,-254 122.2148,-254 122.2148,-290"/>
<text text-anchor="middle" x="69" y="-267.8" font-family="Times,serif" font-size="14.00" fill="#000000">בעל אחות אביו</text>
</g>
<!-- a6&#45;&#45;a5 -->
<!-- d6 -->
<g id="node16" class="node">
<title>d6</title>
<ellipse fill="#000000" stroke="#000000" cx="142" cy="-272" rx="1.8" ry="1.8"/>
</g>
<!-- a6&#45;&#45;d6 -->
<g id="edge24" class="edge">
<title>a6--d6</title>
<path fill="none" stroke="#000000" d="M122.3242,-272C128.2679,-272 134.2117,-272 140.1554,-272"/>
</g>
<!-- d6&#45;&#45;a5 -->
<g id="edge25" class="edge">
<title>d6--a5</title>
<path fill="none" stroke="#000000" d="M143.8438,-272C149.7975,-272 155.7513,-272 161.7051,-272"/>
</g>
<!-- d7&#45;&#45;a7 -->
<g id="edge27" class="edge">
<title>d7--a7</title>
<path fill="none" stroke="#000000" d="M952.8867,-272C958.6543,-272 964.4218,-272 970.1894,-272"/>
</g>
<!-- a8 -->
<g id="node18" class="node">
<title>a8</title>
<polygon fill="#87cefa" stroke="#ff0000" points="669,-290 615,-290 615,-254 669,-254 669,-290"/>
<text text-anchor="middle" x="642" y="-267.8" font-family="Times,serif" font-size="14.00" fill="#000000">חמיו</text>
</g>
<!-- a9 -->
<g id="node19" class="node">
<title>a9</title>
<polygon fill="#ffc0cb" stroke="#000000" points="763,-290 709,-290 709,-254 763,-254 763,-290"/>
<text text-anchor="middle" x="736" y="-267.8" font-family="Times,serif" font-size="14.00" fill="#000000">חמותו</text>
</g>
<!-- a8&#45;&#45;a9 -->
<!-- d8 -->
<g id="node20" class="node">
<title>d8</title>
<ellipse fill="#000000" stroke="#000000" cx="689" cy="-272" rx="1.8" ry="1.8"/>
</g>
<!-- a8&#45;&#45;d8 -->
<g id="edge18" class="edge">
<title>a8--d8</title>
<path fill="none" stroke="#000000" d="M669.1719,-272C675.1616,-272 681.1514,-272 687.1411,-272"/>
</g>
<!-- a9&#45;&#45;a3 -->
<!-- d8&#45;&#45;a9 -->
<g id="edge19" class="edge">
<title>d8--a9</title>
<path fill="none" stroke="#000000" d="M690.8359,-272C696.8343,-272 702.8326,-272 708.831,-272"/>
</g>
<!-- b1 -->
<g id="node25" class="node">
<title>b1</title>
<polygon fill="#ffc0cb" stroke="#000000" points="620,-171 566,-171 566,-135 620,-135 620,-171"/>
<text text-anchor="middle" x="593" y="-148.8" font-family="Times,serif" font-size="14.00" fill="#000000">אשתו</text>
</g>
<!-- d8&#45;&#45;b1 -->
<g id="edge20" class="edge">
<title>d8--b1</title>
<path fill="none" stroke="#000000" d="M688.491,-270.2592C687.1783,-265.9292 683.3986,-254.4158 678,-246 659.5758,-217.2786 632.0424,-189.027 613.3432,-171.338"/>
</g>
<!-- b5 -->
<g id="node29" class="node">
<title>b5</title>
<polygon fill="#ffc0cb" stroke="#000000" points="831.9478,-171 752.0522,-171 752.0522,-135 831.9478,-135 831.9478,-171"/>
<text text-anchor="middle" x="792" y="-148.8" font-family="Times,serif" font-size="14.00" fill="#000000">אחות אשתו</text>
</g>
<!-- d8&#45;&#45;b5 -->
<g id="edge21" class="edge">
<title>d8--b5</title>
<path fill="none" stroke="#000000" d="M689.4885,-270.2458C690.7546,-265.8852 694.4362,-254.3075 700,-246 719.715,-216.5625 749.5655,-188.4675 769.8778,-171.0101"/>
</g>
<!-- a10&#45;&#45;a8 -->
<!-- d12&#45;&#45;a10 -->
<g id="edge34" class="edge">
<title>d12--a10</title>
<path fill="none" stroke="#000000" d="M514.0313,-272C519.7568,-272 525.4824,-272 531.208,-272"/>
</g>
<!-- d1 -->
<g id="node23" class="node">
<title>d1</title>
<ellipse fill="#000000" stroke="#000000" cx="546" cy="-153" rx="1.8" ry="1.8"/>
</g>
<!-- d1&#45;&#45;b1 -->
<g id="edge17" class="edge">
<title>d1--b1</title>
<path fill="none" stroke="#000000" d="M547.8359,-153C553.8343,-153 559.8326,-153 565.831,-153"/>
</g>
<!-- b0&#45;&#45;d1 -->
<g id="edge16" class="edge">
<title>b0--d1</title>
<path fill="none" stroke="#000000" d="M526.875,-153C532.5527,-153 538.2305,-153 543.9082,-153"/>
</g>
<!-- b0&#45;&#45;b1 -->
<!-- b7 -->
<g id="node33" class="node">
<title>b7</title>
<polygon fill="#87cefa" stroke="#000000" points="733.7337,-171 660.2663,-171 660.2663,-135 733.7337,-135 733.7337,-171"/>
<text text-anchor="middle" x="697" y="-148.8" font-family="Times,serif" font-size="14.00" fill="#000000">בעל אשתו</text>
</g>
<!-- b1&#45;&#45;b7 -->
<!-- d11 -->
<g id="node34" class="node">
<title>d11</title>
<ellipse fill="#000000" stroke="#000000" cx="640" cy="-153" rx="1.8" ry="1.8"/>
</g>
<!-- b1&#45;&#45;d11 -->
<g id="edge30" class="edge">
<title>b1--d11</title>
<path fill="none" stroke="#000000" d="M620.1719,-153C626.1616,-153 632.1514,-153 638.1411,-153"/>
</g>
<!-- b2&#45;&#45;b0 -->
<!-- b3&#45;&#45;b2 -->
<!-- b4 -->
<g id="node28" class="node">
<title>b4</title>
<polygon fill="#87cefa" stroke="#ff0000" points="278.7151,-171 197.2849,-171 197.2849,-135 278.7151,-135 278.7151,-171"/>
<text text-anchor="middle" x="238" y="-148.8" font-family="Times,serif" font-size="14.00" fill="#000000">בעל אחותו</text>
</g>
<!-- b4&#45;&#45;b3 -->
<!-- d5 -->
<g id="node30" class="node">
<title>d5</title>
<ellipse fill="#000000" stroke="#000000" cx="299" cy="-153" rx="1.8" ry="1.8"/>
</g>
<!-- b4&#45;&#45;d5 -->
<g id="edge22" class="edge">
<title>b4--d5</title>
<path fill="none" stroke="#000000" d="M278.9844,-153C285.0308,-153 291.0771,-153 297.1235,-153"/>
</g>
<!-- b6 -->
<g id="node31" class="node">
<title>b6</title>
<polygon fill="#87cefa" stroke="#ff0000" points="926,-171 872,-171 872,-135 926,-135 926,-171"/>
<text text-anchor="middle" x="899" y="-148.8" font-family="Times,serif" font-size="14.00" fill="#000000">גיסו</text>
</g>
<!-- b5&#45;&#45;b6 -->
<!-- d10 -->
<g id="node32" class="node">
<title>d10</title>
<ellipse fill="#000000" stroke="#000000" cx="852" cy="-153" rx="1.8" ry="1.8"/>
</g>
<!-- b5&#45;&#45;d10 -->
<g id="edge28" class="edge">
<title>b5--d10</title>
<path fill="none" stroke="#000000" d="M832.3125,-153C838.2598,-153 844.207,-153 850.1543,-153"/>
</g>
<!-- d5&#45;&#45;b3 -->
<g id="edge23" class="edge">
<title>d5--b3</title>
<path fill="none" stroke="#000000" d="M300.8359,-153C306.8343,-153 312.8326,-153 318.831,-153"/>
</g>
<!-- d10&#45;&#45;b6 -->
<g id="edge29" class="edge">
<title>d10--b6</title>
<path fill="none" stroke="#000000" d="M853.8359,-153C859.8343,-153 865.8326,-153 871.831,-153"/>
</g>
<!-- b7&#45;&#45;b5 -->
<!-- d11&#45;&#45;b7 -->
<g id="edge31" class="edge">
<title>d11--b7</title>
<path fill="none" stroke="#000000" d="M642.2266,-153C648.2174,-153 654.2083,-153 660.1991,-153"/>
</g>
<!-- c3 -->
<g id="node35" class="node">
<title>c3</title>
<polygon fill="#87cefa" stroke="#ff0000" stroke-dasharray="5,2" points="667.0023,-52 612.9977,-52 612.9977,-16 667.0023,-16 667.0023,-52"/>
<text text-anchor="middle" x="640" y="-29.8" font-family="Times,serif" font-size="14.00" fill="#000000">חורגו</text>
</g>
<!-- d11&#45;&#45;c3 -->
<g id="edge32" class="edge">
<title>d11--c3</title>
<path fill="none" stroke="#000000" d="M640,-150.9345C640,-139.3917 640,-82.3178 640,-52.3899"/>
</g>
</g>
</svg>