<?xml version="1.0" encoding="UTF-8" standalone="no"?><!DOCTYPE svg PUBLIC "-//W3C//DTD SVG 1.1//EN" "http://www.w3.org/Graphics/SVG/1.1/DTD/svg11.dtd"><!-- Generated by graphviz version 2.40.1 (20161225.0304)
 --><!-- Title: G Pages: 1 --><svg xmlns="http://www.w3.org/2000/svg" xmlns:xlink="http://www.w3.org/1999/xlink" width="691pt" height="348pt" viewBox="0.00 0.00 691.00 347.93">
<g id="graph0" class="graph" transform="scale(1 1) rotate(0) translate(4 343.9324)">
<title>G</title>
<polygon fill="#ffffff" stroke="transparent" points="-4,4 -4,-343.9324 687,-343.9324 687,4 -4,4"/>
<g id="clust1" class="cluster">
<title>cluster_0</title>
<polygon fill="none" stroke="#000000" points="116,-246 116,-298 321,-298 321,-246 116,-246"/>
</g>
<g id="clust3" class="cluster">
<title>cluster_1</title>
<polygon fill="none" stroke="#000000" points="9,-131 9,-183 675,-183 675,-131 9,-131"/>
</g>
<g id="clust5" class="cluster">
<title>cluster_2</title>
<polygon fill="none" stroke="#000000" points="8,-8 8,-68 461,-68 461,-8 8,-8"/>
</g>
<!-- e2 -->
<g id="node1" class="node">
<title>e2</title>
<polygon fill="#87cefa" stroke="#000000" points="202.2149,-290 123.7851,-290 123.7851,-254 202.2149,-254 202.2149,-290"/>
<text text-anchor="middle" x="163" y="-267.8" font-family="Times,serif" font-size="14.00" fill="#000000">אבי חמותו</text>
</g>
<!-- e3 -->
<g id="node2" class="node">
<title>e3</title>
<polygon fill="#ffc0cb" stroke="#000000" points="312.7149,-290 241.2851,-290 241.2851,-254 312.7149,-254 312.7149,-290"/>
<text text-anchor="middle" x="277" y="-267.8" font-family="Times,serif" font-size="14.00" fill="#000000">אם חמותו</text>
</g>
<!-- e2&#45;&#45;e3 -->
<!-- d3 -->
<g id="node3" class="node">
<title>d3</title>
<ellipse fill="#000000" stroke="#000000" cx="222" cy="-272" rx="1.8" ry="1.8"/>
</g>
<!-- e2&#45;&#45;d3 -->
<g id="edge6" class="edge">
<title>e2--d3</title>
<path fill="none" stroke="#000000" d="M202.1797,-272C208.1671,-272 214.1545,-272 220.1418,-272"/>
</g>
<!-- d3&#45;&#45;e3 -->
<g id="edge7" class="edge">
<title>d3--e3</title>
<path fill="none" stroke="#000000" d="M224.1484,-272C229.7914,-272 235.4344,-272 241.0775,-272"/>
</g>
<!-- a1 -->
<g id="node5" class="node">
<title>a1</title>
<polygon fill="#ffc0cb" stroke="#000000" points="165,-175 111,-175 111,-139 165,-139 165,-175"/>
<text text-anchor="middle" x="138" y="-152.8" font-family="Times,serif" font-size="14.00" fill="#000000">חמותו</text>
</g>
<!-- d3&#45;&#45;a1 -->
<g id="edge8" class="edge">
<title>d3--a1</title>
<path fill="none" stroke="#000000" d="M221.4629,-270.2768C220.086,-265.9867 216.1714,-254.5573 211,-246 194.979,-219.4896 171.5972,-192.4549 155.6412,-175.2493"/>
</g>
<!-- a2 -->
<g id="node6" class="node">
<title>a2</title>
<polygon fill="#87cefa" stroke="#ff0000" points="261.2149,-175 182.7851,-175 182.7851,-139 261.2149,-139 261.2149,-175"/>
<text text-anchor="middle" x="222" y="-152.8" font-family="Times,serif" font-size="14.00" fill="#000000">אחי חמותו</text>
</g>
<!-- d3&#45;&#45;a2 -->
<g id="edge9" class="edge">
<title>d3--a2</title>
<path fill="none" stroke="#000000" d="M222,-270.004C222,-258.9088 222,-204.2823 222,-175.238"/>
</g>
<!-- a3 -->
<g id="node7" class="node">
<title>a3</title>
<polygon fill="#ffc0cb" stroke="#000000" points="510.9292,-175 423.0708,-175 423.0708,-139 510.9292,-139 510.9292,-175"/>
<text text-anchor="middle" x="467" y="-152.8" font-family="Times,serif" font-size="14.00" fill="#000000">אחות חמותו</text>
</g>
<!-- d3&#45;&#45;a3 -->
<g id="edge10" class="edge">
<title>d3--a3</title>
<path fill="none" stroke="#000000" d="M222.1921,-270.0663C222.7681,-265.2959 224.9064,-252.8569 232,-246 293.545,-186.5086 334.9821,-215.9118 414,-183 419.7713,-180.5962 425.8014,-177.8617 431.6393,-175.0907"/>
</g>
<!-- a0 -->
<g id="node4" class="node">
<title>a0</title>
<polygon fill="#87cefa" stroke="#000000" points="71,-175 17,-175 17,-139 71,-139 71,-175"/>
<text text-anchor="middle" x="44" y="-152.8" font-family="Times,serif" font-size="14.00" fill="#000000">חמיו</text>
</g>
<!-- a0&#45;&#45;a1 -->
<!-- d1 -->
<g id="node10" class="node">
<title>d1</title>
<ellipse fill="#000000" stroke="#000000" cx="91" cy="-157" rx="1.8" ry="1.8"/>
</g>
<!-- a0&#45;&#45;d1 -->
<g id="edge3" class="edge">
<title>a0--d1</title>
<path fill="none" stroke="#000000" d="M71.1719,-157C77.1616,-157 83.1514,-157 89.1411,-157"/>
</g>
<!-- a1&#45;&#45;a2 -->
<!-- a4 -->
<g id="node8" class="node">
<title>a4</title>
<polygon fill="#ffc0cb" stroke="#000000" points="405.4488,-175 300.5512,-175 300.5512,-139 405.4488,-139 405.4488,-175"/>
<text text-anchor="middle" x="353" y="-152.8" font-family="Times,serif" font-size="14.00" fill="#000000">אשת אחי חמותו</text>
</g>
<!-- a2&#45;&#45;a4 -->
<!-- d2 -->
<g id="node11" class="node">
<title>d2</title>
<ellipse fill="#000000" stroke="#000000" cx="281" cy="-157" rx="1.8" ry="1.8"/>
</g>
<!-- a2&#45;&#45;d2 -->
<g id="edge11" class="edge">
<title>a2--d2</title>
<path fill="none" stroke="#000000" d="M261.1797,-157C267.1671,-157 273.1545,-157 279.1418,-157"/>
</g>
<!-- a5 -->
<g id="node9" class="node">
<title>a5</title>
<polygon fill="#87cefa" stroke="#000000" points="666.9292,-175 551.0708,-175 551.0708,-139 666.9292,-139 666.9292,-175"/>
<text text-anchor="middle" x="609" y="-152.8" font-family="Times,serif" font-size="14.00" fill="#000000">בעל אחות חמותו</text>
</g>
<!-- a3&#45;&#45;a5 -->
<!-- d4 -->
<g id="node12" class="node">
<title>d4</title>
<ellipse fill="#000000" stroke="#000000" cx="531" cy="-157" rx="1.8" ry="1.8"/>
</g>
<!-- a3&#45;&#45;d4 -->
<g id="edge14" class="edge">
<title>a3--d4</title>
<path fill="none" stroke="#000000" d="M511,-157C517.0417,-157 523.0833,-157 529.125,-157"/>
</g>
<!-- a4&#45;&#45;a3 -->
<!-- d1&#45;&#45;a1 -->
<g id="edge4" class="edge">
<title>d1--a1</title>
<path fill="none" stroke="#000000" d="M92.8359,-157C98.8343,-157 104.8326,-157 110.831,-157"/>
</g>
<!-- b1 -->
<g id="node15" class="node">
<title>b1</title>
<polygon fill="#ffc0cb" stroke="#000000" points="215,-56 161,-56 161,-20 215,-20 215,-56"/>
<text text-anchor="middle" x="188" y="-33.8" font-family="Times,serif" font-size="14.00" fill="#000000">אשתו</text>
</g>
<!-- d1&#45;&#45;b1 -->
<g id="edge5" class="edge">
<title>d1--b1</title>
<path fill="none" stroke="#000000" d="M91.5059,-155.2573C92.8118,-150.9228 96.5769,-139.4001 102,-131 120.6072,-102.1784 148.472,-73.9487 167.402,-56.2921"/>
</g>
<!-- d2&#45;&#45;a4 -->
<g id="edge12" class="edge">
<title>d2--a4</title>
<path fill="none" stroke="#000000" d="M282.9688,-157C288.8959,-157 294.823,-157 300.7501,-157"/>
</g>
<!-- b2 -->
<g id="node16" class="node">
<title>b2</title>
<polygon fill="#87cefa" stroke="#ff0000" points="328.715,-56 233.285,-56 233.285,-20 328.715,-20 328.715,-56"/>
<text text-anchor="middle" x="281" y="-33.8" font-family="Times,serif" font-size="14.00" fill="#000000">בן אחי חמותו</text>
</g>
<!-- d2&#45;&#45;b2 -->
<g id="edge13" class="edge">
<title>d2--b2</title>
<path fill="none" stroke="#000000" d="M281,-154.9345C281,-143.3917 281,-86.3178 281,-56.3899"/>
</g>
<!-- d4&#45;&#45;a5 -->
<g id="edge15" class="edge">
<title>d4--a5</title>
<path fill="none" stroke="#000000" d="M532.8281,-157C538.8782,-157 544.9283,-157 550.9785,-157"/>
</g>
<!-- b3 -->
<g id="node17" class="node">
<title>b3</title>
<polygon fill="#87cefa" stroke="#ff0000" points="452.9301,-56 347.0699,-56 347.0699,-20 452.9301,-20 452.9301,-56"/>
<text text-anchor="middle" x="400" y="-33.8" font-family="Times,serif" font-size="14.00" fill="#000000">בן אחות חמותו</text>
</g>
<!-- d4&#45;&#45;b3 -->
<g id="edge16" class="edge">
<title>d4--b3</title>
<path fill="none" stroke="#000000" d="M530.5776,-155.1984C529.4622,-150.7294 526.0976,-138.9241 520,-131 495.648,-99.3534 458.092,-72.5927 431.4889,-56.0184"/>
</g>
<!-- d0 -->
<g id="node13" class="node">
<title>d0</title>
<ellipse fill="#000000" stroke="#000000" cx="141" cy="-38" rx="1.8" ry="1.8"/>
</g>
<!-- d0&#45;&#45;b1 -->
<g id="edge2" class="edge">
<title>d0--b1</title>
<path fill="none" stroke="#000000" d="M142.8359,-38C148.8343,-38 154.8326,-38 160.831,-38"/>
</g>
<!-- b0 -->
<g id="node14" class="node">
<title>b0</title>
<polygon fill="#87cefa" stroke="#000000" points="117.5576,-30.5442 117.5576,-45.4558 89.1132,-56 48.8868,-56 20.4424,-45.4558 20.4424,-30.5442 48.8868,-20 89.1132,-20 117.5576,-30.5442"/>
<polygon fill="none" stroke="#000000" points="121.5599,-27.7615 121.5599,-48.2385 89.8315,-60 48.1685,-60 16.4401,-48.2385 16.4401,-27.7615 48.1685,-16 89.8315,-16 121.5599,-27.7615"/>
<text text-anchor="middle" x="69" y="-33.8" font-family="Times,serif" font-size="14.00" fill="#000000">רב נחמן</text>
</g>
<!-- b0&#45;&#45;d0 -->
<g id="edge1" class="edge">
<title>b0--d0</title>
<path fill="none" stroke="#000000" d="M121.5938,-38C127.4561,-38 133.3184,-38 139.1807,-38"/>
</g>
<!-- b0&#45;&#45;b1 -->
<!-- b1&#45;&#45;b2 -->
<!-- b2&#45;&#45;b3 -->
</g>
</svg>