<?xml version="1.0" encoding="UTF-8" standalone="no"?><!DOCTYPE svg PUBLIC "-//W3C//DTD SVG 1.1//EN" "http://www.w3.org/Graphics/SVG/1.1/DTD/svg11.dtd"><!-- Generated by graphviz version 2.40.1 (20161225.0304)
 --><!-- Title: G Pages: 1 --><svg xmlns="http://www.w3.org/2000/svg" xmlns:xlink="http://www.w3.org/1999/xlink" width="774pt" height="463pt" viewBox="0.00 0.00 774.00 462.88">
<g id="graph0" class="graph" transform="scale(1 1) rotate(0) translate(4 458.8768)">
<title>G</title>
<polygon fill="#ffffff" stroke="transparent" points="-4,4 -4,-458.8768 770,-458.8768 770,4 -4,4"/>
<g id="clust1" class="cluster">
<title>cluster_0</title>
<polygon fill="none" stroke="#000000" points="236,-361 236,-413 566,-413 566,-361 236,-361"/>
</g>
<g id="clust3" class="cluster">
<title>cluster_1</title>
<polygon fill="none" stroke="#000000" points="77,-246 77,-298 711,-298 711,-246 77,-246"/>
</g>
<g id="clust5" class="cluster">
<title>cluster_2</title>
<polygon fill="none" stroke="#000000" points="8,-123 8,-183 758,-183 758,-123 8,-123"/>
</g>
<g id="clust7" class="cluster">
<title>cluster_3</title>
<polygon fill="none" stroke="#000000" points="285,-8 285,-60 521,-60 521,-8 285,-8"/>
</g>
<!-- e0 -->
<g id="node1" class="node">
<title>e0</title>
<polygon fill="#87cefa" stroke="#000000" points="298,-405 244,-405 244,-369 298,-369 298,-405"/>
<text text-anchor="middle" x="271" y="-382.8" font-family="Times,serif" font-size="14.00" fill="#000000">סבו</text>
</g>
<!-- e1 -->
<g id="node2" class="node">
<title>e1</title>
<polygon fill="#ffc0cb" stroke="#000000" points="392,-405 338,-405 338,-369 392,-369 392,-405"/>
<text text-anchor="middle" x="365" y="-382.8" font-family="Times,serif" font-size="14.00" fill="#000000">סבתו</text>
</g>
<!-- e0&#45;&#45;e1 -->
<!-- d2 -->
<g id="node5" class="node">
<title>d2</title>
<ellipse fill="#000000" stroke="#000000" cx="318" cy="-387" rx="1.8" ry="1.8"/>
</g>
<!-- e0&#45;&#45;d2 -->
<g id="edge1" class="edge">
<title>e0--d2</title>
<path fill="none" stroke="#000000" d="M298.1719,-387C304.1616,-387 310.1514,-387 316.1411,-387"/>
</g>
<!-- e2 -->
<g id="node3" class="node">
<title>e2</title>
<polygon fill="#87cefa" stroke="#000000" points="464,-405 410,-405 410,-369 464,-369 464,-405"/>
<text text-anchor="middle" x="437" y="-382.8" font-family="Times,serif" font-size="14.00" fill="#000000">סבו</text>
</g>
<!-- e1&#45;&#45;e2 -->
<!-- e3 -->
<g id="node4" class="node">
<title>e3</title>
<polygon fill="#ffc0cb" stroke="#000000" points="558,-405 504,-405 504,-369 558,-369 558,-405"/>
<text text-anchor="middle" x="531" y="-382.8" font-family="Times,serif" font-size="14.00" fill="#000000">סבתו</text>
</g>
<!-- e2&#45;&#45;e3 -->
<!-- d3 -->
<g id="node6" class="node">
<title>d3</title>
<ellipse fill="#000000" stroke="#000000" cx="484" cy="-387" rx="1.8" ry="1.8"/>
</g>
<!-- e2&#45;&#45;d3 -->
<g id="edge5" class="edge">
<title>e2--d3</title>
<path fill="none" stroke="#000000" d="M464.1719,-387C470.1616,-387 476.1514,-387 482.1411,-387"/>
</g>
<!-- d2&#45;&#45;e1 -->
<g id="edge2" class="edge">
<title>d2--e1</title>
<path fill="none" stroke="#000000" d="M319.8359,-387C325.8343,-387 331.8326,-387 337.831,-387"/>
</g>
<!-- a0 -->
<g id="node8" class="node">
<title>a0</title>
<polygon fill="#87cefa" stroke="#000000" points="381,-290 327,-290 327,-254 381,-254 381,-290"/>
<text text-anchor="middle" x="354" y="-267.8" font-family="Times,serif" font-size="14.00" fill="#000000">אביו</text>
</g>
<!-- d2&#45;&#45;a0 -->
<g id="edge3" class="edge">
<title>d2--a0</title>
<path fill="none" stroke="#000000" d="M318.6248,-385.004C322.0981,-373.9088 339.1986,-319.2823 348.2907,-290.238"/>
</g>
<!-- a5 -->
<g id="node11" class="node">
<title>a5</title>
<polygon fill="#ffc0cb" stroke="#000000" points="309.2149,-290 230.7851,-290 230.7851,-254 309.2149,-254 309.2149,-290"/>
<text text-anchor="middle" x="270" y="-267.8" font-family="Times,serif" font-size="14.00" fill="#000000">אחות אביו</text>
</g>
<!-- d2&#45;&#45;a5 -->
<g id="edge4" class="edge">
<title>d2--a5</title>
<path fill="none" stroke="#000000" d="M317.1669,-385.004C312.5358,-373.9088 289.7352,-319.2823 277.6124,-290.238"/>
</g>
<!-- d3&#45;&#45;e3 -->
<g id="edge6" class="edge">
<title>d3--e3</title>
<path fill="none" stroke="#000000" d="M485.8359,-387C491.8343,-387 497.8326,-387 503.831,-387"/>
</g>
<!-- a1 -->
<g id="node9" class="node">
<title>a1</title>
<polygon fill="#ffc0cb" stroke="#000000" points="475,-290 421,-290 421,-254 475,-254 475,-290"/>
<text text-anchor="middle" x="448" y="-267.8" font-family="Times,serif" font-size="14.00" fill="#000000">אמו</text>
</g>
<!-- d3&#45;&#45;a1 -->
<g id="edge7" class="edge">
<title>d3--a1</title>
<path fill="none" stroke="#000000" d="M483.3752,-385.004C479.9019,-373.9088 462.8014,-319.2823 453.7093,-290.238"/>
</g>
<!-- a4 -->
<g id="node10" class="node">
<title>a4</title>
<polygon fill="#ffc0cb" stroke="#000000" points="564.7149,-290 493.2851,-290 493.2851,-254 564.7149,-254 564.7149,-290"/>
<text text-anchor="middle" x="529" y="-267.8" font-family="Times,serif" font-size="14.00" fill="#000000">אחות אמו</text>
</g>
<!-- d3&#45;&#45;a4 -->
<g id="edge8" class="edge">
<title>d3--a4</title>
<path fill="none" stroke="#000000" d="M484.7811,-385.004C489.1227,-373.9088 510.4982,-319.2823 521.8634,-290.238"/>
</g>
<!-- d0 -->
<g id="node7" class="node">
<title>d0</title>
<ellipse fill="#000000" stroke="#000000" cx="401" cy="-272" rx="1.8" ry="1.8"/>
</g>
<!-- d0&#45;&#45;a1 -->
<g id="edge10" class="edge">
<title>d0--a1</title>
<path fill="none" stroke="#000000" d="M402.8359,-272C408.8343,-272 414.8326,-272 420.831,-272"/>
</g>
<!-- b0 -->
<g id="node16" class="node">
<title>b0</title>
<polygon fill="#87cefa" stroke="#000000" points="507.7341,-145.5442 507.7341,-160.4558 491.4878,-171 468.5122,-171 452.2659,-160.4558 452.2659,-145.5442 468.5122,-135 491.4878,-135 507.7341,-145.5442"/>
<polygon fill="none" stroke="#000000" points="511.75,-143.3763 511.75,-162.6237 492.6807,-175 467.3193,-175 448.25,-162.6237 448.25,-143.3763 467.3193,-131 492.6807,-131 511.75,-143.3763"/>
<text text-anchor="middle" x="480" y="-148.8" font-family="Times,serif" font-size="14.00" fill="#000000">הוא</text>
</g>
<!-- d0&#45;&#45;b0 -->
<g id="edge11" class="edge">
<title>d0--b0</title>
<path fill="none" stroke="#000000" d="M401.6548,-270.036C403.1709,-265.5998 407.1652,-254.5272 412,-246 427.1925,-219.2051 448.7142,-190.9932 463.4524,-172.7656"/>
</g>
<!-- b3 -->
<g id="node19" class="node">
<title>b3</title>
<polygon fill="#ffc0cb" stroke="#000000" points="430,-171 376,-171 376,-135 430,-135 430,-171"/>
<text text-anchor="middle" x="403" y="-148.8" font-family="Times,serif" font-size="14.00" fill="#000000">אחותו</text>
</g>
<!-- d0&#45;&#45;b3 -->
<g id="edge12" class="edge">
<title>d0--b3</title>
<path fill="none" stroke="#000000" d="M401.0347,-269.9345C401.2287,-258.3917 402.1879,-201.3178 402.6909,-171.3899"/>
</g>
<!-- a0&#45;&#45;d0 -->
<g id="edge9" class="edge">
<title>a0--d0</title>
<path fill="none" stroke="#000000" d="M381.1719,-272C387.1616,-272 393.1514,-272 399.1411,-272"/>
</g>
<!-- a0&#45;&#45;a1 -->
<!-- a1&#45;&#45;a4 -->
<!-- a7 -->
<g id="node13" class="node">
<title>a7</title>
<polygon fill="#87cefa" stroke="#000000" points="702.7148,-290 603.2852,-290 603.2852,-254 702.7148,-254 702.7148,-290"/>
<text text-anchor="middle" x="653" y="-267.8" font-family="Times,serif" font-size="14.00" fill="#000000">בעל אחות אמו</text>
</g>
<!-- a4&#45;&#45;a7 -->
<!-- d7 -->
<g id="node15" class="node">
<title>d7</title>
<ellipse fill="#000000" stroke="#000000" cx="584" cy="-272" rx="1.8" ry="1.8"/>
</g>
<!-- a4&#45;&#45;d7 -->
<g id="edge23" class="edge">
<title>a4--d7</title>
<path fill="none" stroke="#000000" d="M564.6641,-272C570.5051,-272 576.3462,-272 582.1873,-272"/>
</g>
<!-- a5&#45;&#45;a0 -->
<!-- a6 -->
<g id="node12" class="node">
<title>a6</title>
<polygon fill="#87cefa" stroke="#000000" points="191.2148,-290 84.7852,-290 84.7852,-254 191.2148,-254 191.2148,-290"/>
<text text-anchor="middle" x="138" y="-267.8" font-family="Times,serif" font-size="14.00" fill="#000000">בעל אחות אביו</text>
</g>
<!-- a6&#45;&#45;a5 -->
<!-- d6 -->
<g id="node14" class="node">
<title>d6</title>
<ellipse fill="#000000" stroke="#000000" cx="211" cy="-272" rx="1.8" ry="1.8"/>
</g>
<!-- a6&#45;&#45;d6 -->
<g id="edge19" class="edge">
<title>a6--d6</title>
<path fill="none" stroke="#000000" d="M191.3242,-272C197.2679,-272 203.2117,-272 209.1554,-272"/>
</g>
<!-- d6&#45;&#45;a5 -->
<g id="edge20" class="edge">
<title>d6--a5</title>
<path fill="none" stroke="#000000" d="M212.8438,-272C218.7975,-272 224.7513,-272 230.7051,-272"/>
</g>
<!-- b1 -->
<g id="node17" class="node">
<title>b1</title>
<polygon fill="#ffc0cb" stroke="#000000" points="164,-171 110,-171 110,-135 164,-135 164,-171"/>
<text text-anchor="middle" x="137" y="-148.8" font-family="Times,serif" font-size="14.00" fill="#000000">בת</text>
</g>
<!-- d6&#45;&#45;b1 -->
<g id="edge21" class="edge">
<title>d6--b1</title>
<path fill="none" stroke="#000000" d="M210.3231,-270.0483C208.7617,-265.6372 204.6808,-254.6127 200,-246 185.1933,-218.7559 164.4766,-189.4786 150.903,-171.2034"/>
</g>
<!-- b2 -->
<g id="node18" class="node">
<title>b2</title>
<polygon fill="#87cefa" stroke="#000000" points="236,-171 182,-171 182,-135 236,-135 236,-171"/>
<text text-anchor="middle" x="209" y="-148.8" font-family="Times,serif" font-size="14.00" fill="#000000">בן</text>
</g>
<!-- d6&#45;&#45;b2 -->
<g id="edge22" class="edge">
<title>d6--b2</title>
<path fill="none" stroke="#000000" d="M210.9653,-269.9345C210.7713,-258.3917 209.8121,-201.3178 209.3091,-171.3899"/>
</g>
<!-- d7&#45;&#45;a7 -->
<g id="edge24" class="edge">
<title>d7--a7</title>
<path fill="none" stroke="#000000" d="M585.8867,-272C591.6543,-272 597.4218,-272 603.1894,-272"/>
</g>
<!-- b5 -->
<g id="node21" class="node">
<title>b5</title>
<polygon fill="#ffc0cb" stroke="#000000" points="656,-171 602,-171 602,-135 656,-135 656,-171"/>
<text text-anchor="middle" x="629" y="-148.8" font-family="Times,serif" font-size="14.00" fill="#000000">בת</text>
</g>
<!-- d7&#45;&#45;b5 -->
<g id="edge25" class="edge">
<title>d7--b5</title>
<path fill="none" stroke="#000000" d="M584.7811,-269.9345C589.146,-258.3917 610.7286,-201.3178 622.0458,-171.3899"/>
</g>
<!-- b6 -->
<g id="node22" class="node">
<title>b6</title>
<polygon fill="#87cefa" stroke="#000000" points="584,-171 530,-171 530,-135 584,-135 584,-171"/>
<text text-anchor="middle" x="557" y="-148.8" font-family="Times,serif" font-size="14.00" fill="#000000">בן</text>
</g>
<!-- d7&#45;&#45;b6 -->
<g id="edge26" class="edge">
<title>d7--b6</title>
<path fill="none" stroke="#000000" d="M583.5314,-269.9345C580.9124,-258.3917 567.9629,-201.3178 561.1725,-171.3899"/>
</g>
<!-- b0&#45;&#45;b6 -->
<!-- b1&#45;&#45;b2 -->
<!-- b4 -->
<g id="node20" class="node">
<title>b4</title>
<polygon fill="#87cefa" stroke="#000000" points="335.7151,-171 254.2849,-171 254.2849,-135 335.7151,-135 335.7151,-171"/>
<text text-anchor="middle" x="295" y="-148.8" font-family="Times,serif" font-size="14.00" fill="#000000">בעל אחותו</text>
</g>
<!-- b2&#45;&#45;b4 -->
<!-- b3&#45;&#45;b0 -->
<!-- b4&#45;&#45;b3 -->
<!-- d5 -->
<g id="node25" class="node">
<title>d5</title>
<ellipse fill="#000000" stroke="#000000" cx="356" cy="-153" rx="1.8" ry="1.8"/>
</g>
<!-- b4&#45;&#45;d5 -->
<g id="edge13" class="edge">
<title>b4--d5</title>
<path fill="none" stroke="#000000" d="M335.9844,-153C342.0308,-153 348.0771,-153 354.1235,-153"/>
</g>
<!-- b8 -->
<g id="node24" class="node">
<title>b8</title>
<polygon fill="#87cefa" stroke="#ff0000" points="750,-171 696,-171 696,-135 750,-135 750,-171"/>
<text text-anchor="middle" x="723" y="-148.8" font-family="Times,serif" font-size="14.00" fill="#000000">חתן</text>
</g>
<!-- b5&#45;&#45;b8 -->
<!-- d8 -->
<g id="node27" class="node">
<title>d8</title>
<ellipse fill="#000000" stroke="#000000" cx="676" cy="-153" rx="1.8" ry="1.8"/>
</g>
<!-- b5&#45;&#45;d8 -->
<g id="edge29" class="edge">
<title>b5--d8</title>
<path fill="none" stroke="#000000" d="M656.1719,-153C662.1616,-153 668.1514,-153 674.1411,-153"/>
</g>
<!-- b6&#45;&#45;b5 -->
<!-- b7 -->
<g id="node23" class="node">
<title>b7</title>
<polygon fill="#87cefa" stroke="#ff0000" points="70,-171 16,-171 16,-135 70,-135 70,-171"/>
<text text-anchor="middle" x="43" y="-148.8" font-family="Times,serif" font-size="14.00" fill="#000000">חתן</text>
</g>
<!-- b7&#45;&#45;b1 -->
<!-- d1 -->
<g id="node26" class="node">
<title>d1</title>
<ellipse fill="#000000" stroke="#000000" cx="90" cy="-153" rx="1.8" ry="1.8"/>
</g>
<!-- b7&#45;&#45;d1 -->
<g id="edge27" class="edge">
<title>b7--d1</title>
<path fill="none" stroke="#000000" d="M70.1719,-153C76.1616,-153 82.1514,-153 88.1411,-153"/>
</g>
<!-- d5&#45;&#45;b3 -->
<g id="edge14" class="edge">
<title>d5--b3</title>
<path fill="none" stroke="#000000" d="M357.8359,-153C363.8343,-153 369.8326,-153 375.831,-153"/>
</g>
<!-- c0 -->
<g id="node28" class="node">
<title>c0</title>
<polygon fill="#87cefa" stroke="#000000" points="347,-52 293,-52 293,-16 347,-16 347,-52"/>
<text text-anchor="middle" x="320" y="-29.8" font-family="Times,serif" font-size="14.00" fill="#000000">בן</text>
</g>
<!-- d5&#45;&#45;c0 -->
<g id="edge15" class="edge">
<title>d5--c0</title>
<path fill="none" stroke="#000000" d="M355.3752,-150.9345C351.8832,-139.3917 334.6171,-82.3178 325.5633,-52.3899"/>
</g>
<!-- c1 -->
<g id="node29" class="node">
<title>c1</title>
<polygon fill="#ffc0cb" stroke="#000000" points="419,-52 365,-52 365,-16 419,-16 419,-52"/>
<text text-anchor="middle" x="392" y="-29.8" font-family="Times,serif" font-size="14.00" fill="#000000">בת</text>
</g>
<!-- d5&#45;&#45;c1 -->
<g id="edge16" class="edge">
<title>d5--c1</title>
<path fill="none" stroke="#000000" d="M356.6248,-150.9345C360.1168,-139.3917 377.3829,-82.3178 386.4367,-52.3899"/>
</g>
<!-- d1&#45;&#45;b1 -->
<g id="edge28" class="edge">
<title>d1--b1</title>
<path fill="none" stroke="#000000" d="M91.8359,-153C97.8343,-153 103.8326,-153 109.831,-153"/>
</g>
<!-- d8&#45;&#45;b8 -->
<g id="edge30" class="edge">
<title>d8--b8</title>
<path fill="none" stroke="#000000" d="M677.8359,-153C683.8343,-153 689.8326,-153 695.831,-153"/>
</g>
<!-- c0&#45;&#45;c1 -->
<!-- c2 -->
<g id="node30" class="node">
<title>c2</title>
<polygon fill="#87cefa" stroke="#ff0000" points="513,-52 459,-52 459,-16 513,-16 513,-52"/>
<text text-anchor="middle" x="486" y="-29.8" font-family="Times,serif" font-size="14.00" fill="#000000">חתן</text>
</g>
<!-- c1&#45;&#45;c2 -->
<!-- d4 -->
<g id="node31" class="node">
<title>d4</title>
<ellipse fill="#000000" stroke="#000000" cx="439" cy="-34" rx="1.8" ry="1.8"/>
</g>
<!-- c1&#45;&#45;d4 -->
<g id="edge17" class="edge">
<title>c1--d4</title>
<path fill="none" stroke="#000000" d="M419.1719,-34C425.1616,-34 431.1514,-34 437.1411,-34"/>
</g>
<!-- d4&#45;&#45;c2 -->
<g id="edge18" class="edge">
<title>d4--c2</title>
<path fill="none" stroke="#000000" d="M440.8359,-34C446.8343,-34 452.8326,-34 458.831,-34"/>
</g>
</g>
</svg>