<?xml version="1.0" encoding="UTF-8" standalone="no"?><!DOCTYPE svg PUBLIC "-//W3C//DTD SVG 1.1//EN" "http://www.w3.org/Graphics/SVG/1.1/DTD/svg11.dtd"><!-- Generated by graphviz version 2.40.1 (20161225.0304)
 --><!-- Title: G Pages: 1 --><svg xmlns="http://www.w3.org/2000/svg" xmlns:xlink="http://www.w3.org/1999/xlink" width="650pt" height="348pt" viewBox="0.00 0.00 650.00 347.94">
<g id="graph0" class="graph" transform="scale(1 1) rotate(0) translate(4 343.937)">
<title>G</title>
<polygon fill="#ffffff" stroke="transparent" points="-4,4 -4,-343.937 646,-343.937 646,4 -4,4"/>
<g id="clust1" class="cluster">
<title>cluster_0</title>
<polygon fill="none" stroke="#000000" points="330,-246 330,-298 516,-298 516,-246 330,-246"/>
</g>
<g id="clust3" class="cluster">
<title>cluster_1</title>
<polygon fill="none" stroke="#000000" points="8,-131 8,-183 634,-183 634,-131 8,-131"/>
</g>
<g id="clust5" class="cluster">
<title>cluster_2</title>
<polygon fill="none" stroke="#000000" points="196,-8 196,-68 587,-68 587,-8 196,-8"/>
</g>
<!-- e2 -->
<g id="node1" class="node">
<title>e2</title>
<polygon fill="#87cefa" stroke="#000000" points="406.0018,-290 337.9982,-290 337.9982,-254 406.0018,-254 406.0018,-290"/>
<text text-anchor="middle" x="372" y="-267.8" font-family="Times,serif" font-size="14.00" fill="#000000">אבי חמיו</text>
</g>
<!-- e3 -->
<g id="node2" class="node">
<title>e3</title>
<polygon fill="#ffc0cb" stroke="#000000" points="507.502,-290 446.498,-290 446.498,-254 507.502,-254 507.502,-290"/>
<text text-anchor="middle" x="477" y="-267.8" font-family="Times,serif" font-size="14.00" fill="#000000">אם חמיו</text>
</g>
<!-- e2&#45;&#45;e3 -->
<!-- d3 -->
<g id="node3" class="node">
<title>d3</title>
<ellipse fill="#000000" stroke="#000000" cx="426" cy="-272" rx="1.8" ry="1.8"/>
</g>
<!-- e2&#45;&#45;d3 -->
<g id="edge6" class="edge">
<title>e2--d3</title>
<path fill="none" stroke="#000000" d="M406.1719,-272C412.1616,-272 418.1514,-272 424.1411,-272"/>
</g>
<!-- d3&#45;&#45;e3 -->
<g id="edge7" class="edge">
<title>d3--e3</title>
<path fill="none" stroke="#000000" d="M427.9922,-272C434.1182,-272 440.2441,-272 446.3701,-272"/>
</g>
<!-- a1 -->
<g id="node5" class="node">
<title>a1</title>
<polygon fill="#87cefa" stroke="#000000" points="532,-175 478,-175 478,-139 532,-139 532,-175"/>
<text text-anchor="middle" x="505" y="-152.8" font-family="Times,serif" font-size="14.00" fill="#000000">חמיו</text>
</g>
<!-- d3&#45;&#45;a1 -->
<g id="edge8" class="edge">
<title>d3--a1</title>
<path fill="none" stroke="#000000" d="M426.5555,-270.2877C427.9743,-266.0224 431.9771,-254.6453 437,-246 452.2391,-219.7711 474.1565,-192.4596 488.9542,-175.1247"/>
</g>
<!-- a2 -->
<g id="node6" class="node">
<title>a2</title>
<polygon fill="#87cefa" stroke="#ff0000" points="460.0018,-175 391.9982,-175 391.9982,-139 460.0018,-139 460.0018,-175"/>
<text text-anchor="middle" x="426" y="-152.8" font-family="Times,serif" font-size="14.00" fill="#000000">אחי חמיו</text>
</g>
<!-- d3&#45;&#45;a2 -->
<g id="edge9" class="edge">
<title>d3--a2</title>
<path fill="none" stroke="#000000" d="M426,-270.004C426,-258.9088 426,-204.2823 426,-175.238"/>
</g>
<!-- a3 -->
<g id="node7" class="node">
<title>a3</title>
<polygon fill="#ffc0cb" stroke="#000000" points="240.2149,-175 161.7851,-175 161.7851,-139 240.2149,-139 240.2149,-175"/>
<text text-anchor="middle" x="201" y="-152.8" font-family="Times,serif" font-size="14.00" fill="#000000">אחות חמיו</text>
</g>
<!-- d3&#45;&#45;a3 -->
<g id="edge10" class="edge">
<title>d3--a3</title>
<path fill="none" stroke="#000000" d="M425.7142,-270.0761C424.9107,-265.3281 422.2014,-252.9362 415,-246 358.1638,-191.2569 320.7426,-215.8657 249,-183 243.7441,-180.5922 238.2676,-177.8557 232.9741,-175.0838"/>
</g>
<!-- a0 -->
<g id="node4" class="node">
<title>a0</title>
<polygon fill="#ffc0cb" stroke="#000000" points="626,-175 572,-175 572,-139 626,-139 626,-175"/>
<text text-anchor="middle" x="599" y="-152.8" font-family="Times,serif" font-size="14.00" fill="#000000">חמותו</text>
</g>
<!-- a1&#45;&#45;a0 -->
<!-- d1 -->
<g id="node10" class="node">
<title>d1</title>
<ellipse fill="#000000" stroke="#000000" cx="552" cy="-157" rx="1.8" ry="1.8"/>
</g>
<!-- a1&#45;&#45;d1 -->
<g id="edge3" class="edge">
<title>a1--d1</title>
<path fill="none" stroke="#000000" d="M532.1719,-157C538.1616,-157 544.1514,-157 550.1411,-157"/>
</g>
<!-- a2&#45;&#45;a1 -->
<!-- a4 -->
<g id="node8" class="node">
<title>a4</title>
<polygon fill="#ffc0cb" stroke="#000000" points="352.2336,-175 257.7664,-175 257.7664,-139 352.2336,-139 352.2336,-175"/>
<text text-anchor="middle" x="305" y="-152.8" font-family="Times,serif" font-size="14.00" fill="#000000">אשת אחי חמיו</text>
</g>
<!-- a3&#45;&#45;a4 -->
<!-- a4&#45;&#45;a2 -->
<!-- d2 -->
<g id="node11" class="node">
<title>d2</title>
<ellipse fill="#000000" stroke="#000000" cx="372" cy="-157" rx="1.8" ry="1.8"/>
</g>
<!-- a4&#45;&#45;d2 -->
<g id="edge11" class="edge">
<title>a4--d2</title>
<path fill="none" stroke="#000000" d="M352.3711,-157C358.3007,-157 364.2302,-157 370.1598,-157"/>
</g>
<!-- a5 -->
<g id="node9" class="node">
<title>a5</title>
<polygon fill="#87cefa" stroke="#000000" points="122.2148,-175 15.7852,-175 15.7852,-139 122.2148,-139 122.2148,-175"/>
<text text-anchor="middle" x="69" y="-152.8" font-family="Times,serif" font-size="14.00" fill="#000000">בעל אחות חמיו</text>
</g>
<!-- a5&#45;&#45;a3 -->
<!-- d4 -->
<g id="node12" class="node">
<title>d4</title>
<ellipse fill="#000000" stroke="#000000" cx="142" cy="-157" rx="1.8" ry="1.8"/>
</g>
<!-- a5&#45;&#45;d4 -->
<g id="edge14" class="edge">
<title>a5--d4</title>
<path fill="none" stroke="#000000" d="M122.3242,-157C128.2679,-157 134.2117,-157 140.1554,-157"/>
</g>
<!-- d1&#45;&#45;a0 -->
<g id="edge4" class="edge">
<title>d1--a0</title>
<path fill="none" stroke="#000000" d="M553.8359,-157C559.8343,-157 565.8326,-157 571.831,-157"/>
</g>
<!-- b1 -->
<g id="node15" class="node">
<title>b1</title>
<polygon fill="#ffc0cb" stroke="#000000" points="579,-56 525,-56 525,-20 579,-20 579,-56"/>
<text text-anchor="middle" x="552" y="-33.8" font-family="Times,serif" font-size="14.00" fill="#000000">אשתו</text>
</g>
<!-- d1&#45;&#45;b1 -->
<g id="edge5" class="edge">
<title>d1--b1</title>
<path fill="none" stroke="#000000" d="M552,-154.9345C552,-143.3917 552,-86.3178 552,-56.3899"/>
</g>
<!-- d2&#45;&#45;a2 -->
<g id="edge12" class="edge">
<title>d2--a2</title>
<path fill="none" stroke="#000000" d="M374.1094,-157C380.0552,-157 386.001,-157 391.9468,-157"/>
</g>
<!-- b2 -->
<g id="node16" class="node">
<title>b2</title>
<polygon fill="#87cefa" stroke="#ff0000" points="404,-56 318,-56 318,-20 404,-20 404,-56"/>
<text text-anchor="middle" x="361" y="-33.8" font-family="Times,serif" font-size="14.00" fill="#000000">בן אחי חמיו</text>
</g>
<!-- d2&#45;&#45;b2 -->
<g id="edge13" class="edge">
<title>d2--b2</title>
<path fill="none" stroke="#000000" d="M371.8091,-154.9345C370.7421,-143.3917 365.4663,-86.3178 362.6999,-56.3899"/>
</g>
<!-- d4&#45;&#45;a3 -->
<g id="edge15" class="edge">
<title>d4--a3</title>
<path fill="none" stroke="#000000" d="M143.8438,-157C149.7975,-157 155.7513,-157 161.7051,-157"/>
</g>
<!-- b3 -->
<g id="node17" class="node">
<title>b3</title>
<polygon fill="#87cefa" stroke="#ff0000" points="299.715,-56 204.285,-56 204.285,-20 299.715,-20 299.715,-56"/>
<text text-anchor="middle" x="252" y="-33.8" font-family="Times,serif" font-size="14.00" fill="#000000">בן אחות חמיו</text>
</g>
<!-- d4&#45;&#45;b3 -->
<g id="edge16" class="edge">
<title>d4--b3</title>
<path fill="none" stroke="#000000" d="M142.4698,-155.2331C143.6932,-150.8432 147.285,-139.2042 153,-131 173.8925,-101.0078 205.7781,-73.2412 227.6859,-56"/>
</g>
<!-- d0 -->
<g id="node13" class="node">
<title>d0</title>
<ellipse fill="#000000" stroke="#000000" cx="505" cy="-38" rx="1.8" ry="1.8"/>
</g>
<!-- d0&#45;&#45;b1 -->
<g id="edge2" class="edge">
<title>d0--b1</title>
<path fill="none" stroke="#000000" d="M506.8359,-38C512.8343,-38 518.8326,-38 524.831,-38"/>
</g>
<!-- b0 -->
<g id="node14" class="node">
<title>b0</title>
<polygon fill="#87cefa" stroke="#000000" points="481.7341,-30.5442 481.7341,-45.4558 465.4878,-56 442.5122,-56 426.2659,-45.4558 426.2659,-30.5442 442.5122,-20 465.4878,-20 481.7341,-30.5442"/>
<polygon fill="none" stroke="#000000" points="485.75,-28.3763 485.75,-47.6237 466.6807,-60 441.3193,-60 422.25,-47.6237 422.25,-28.3763 441.3193,-16 466.6807,-16 485.75,-28.3763"/>
<text text-anchor="middle" x="454" y="-33.8" font-family="Times,serif" font-size="14.00" fill="#000000">הוא</text>
</g>
<!-- b0&#45;&#45;d0 -->
<g id="edge1" class="edge">
<title>b0--d0</title>
<path fill="none" stroke="#000000" d="M485.875,-38C491.5527,-38 497.2305,-38 502.9082,-38"/>
</g>
<!-- b0&#45;&#45;b1 -->
<!-- b2&#45;&#45;b0 -->
<!-- b3&#45;&#45;b2 -->
</g>
</svg>