<?xml version="1.0" encoding="UTF-8" standalone="no"?><!DOCTYPE svg PUBLIC "-//W3C//DTD SVG 1.1//EN" "http://www.w3.org/Graphics/SVG/1.1/DTD/svg11.dtd"><!-- Generated by graphviz version 2.40.1 (20161225.0304)
 --><!-- Title: G Pages: 1 --><svg xmlns="http://www.w3.org/2000/svg" xmlns:xlink="http://www.w3.org/1999/xlink" width="573pt" height="463pt" viewBox="0.00 0.00 573.00 462.88">
<g id="graph0" class="graph" transform="scale(1 1) rotate(0) translate(4 458.8768)">
<title>G</title>
<polygon fill="#ffffff" stroke="transparent" points="-4,4 -4,-458.8768 569,-458.8768 569,4 -4,4"/>
<g id="clust1" class="cluster">
<title>cluster_0</title>
<polygon fill="none" stroke="#000000" points="204,-361 204,-413 368,-413 368,-361 204,-361"/>
</g>
<g id="clust3" class="cluster">
<title>cluster_1</title>
<polygon fill="none" stroke="#000000" points="71,-246 71,-298 455,-298 455,-246 71,-246"/>
</g>
<g id="clust5" class="cluster">
<title>cluster_2</title>
<polygon fill="none" stroke="#000000" points="64,-123 64,-183 474,-183 474,-123 64,-123"/>
</g>
<g id="clust7" class="cluster">
<title>cluster_3</title>
<polygon fill="none" stroke="#000000" points="321,-8 321,-60 557,-60 557,-8 321,-8"/>
</g>
<!-- x0 -->
<g id="node1" class="node">
<title>x0</title>
<polygon fill="#d3d3d3" stroke="#000000" points="54,-405 0,-405 0,-369 54,-369 54,-405"/>
<text text-anchor="middle" x="27" y="-382.8" font-family="Times,serif" font-size="14.00" fill="#000000">דור 0</text>
</g>
<!-- x1 -->
<g id="node2" class="node">
<title>x1</title>
<polygon fill="#d3d3d3" stroke="#000000" points="54,-290 0,-290 0,-254 54,-254 54,-290"/>
<text text-anchor="middle" x="27" y="-267.8" font-family="Times,serif" font-size="14.00" fill="#000000">דור 1</text>
</g>
<!-- x0&#45;&#45;x1 -->
<g id="edge1" class="edge">
<title>x0--x1</title>
<path fill="none" stroke="#000000" d="M27,-368.7779C27,-347.2444 27,-311.6331 27,-290.1368"/>
</g>
<!-- x2 -->
<g id="node3" class="node">
<title>x2</title>
<polygon fill="#d3d3d3" stroke="#000000" points="54,-171 0,-171 0,-135 54,-135 54,-171"/>
<text text-anchor="middle" x="27" y="-148.8" font-family="Times,serif" font-size="14.00" fill="#000000">דור 2</text>
</g>
<!-- x1&#45;&#45;x2 -->
<g id="edge2" class="edge">
<title>x1--x2</title>
<path fill="none" stroke="#000000" d="M27,-253.9265C27,-231.5598 27,-193.6885 27,-171.2436"/>
</g>
<!-- x3 -->
<g id="node4" class="node">
<title>x3</title>
<polygon fill="#d3d3d3" stroke="#000000" points="54,-52 0,-52 0,-16 54,-16 54,-52"/>
<text text-anchor="middle" x="27" y="-29.8" font-family="Times,serif" font-size="14.00" fill="#000000">דור 3</text>
</g>
<!-- x2&#45;&#45;x3 -->
<g id="edge3" class="edge">
<title>x2--x3</title>
<path fill="none" stroke="#000000" d="M27,-134.9265C27,-112.5598 27,-74.6885 27,-52.2436"/>
</g>
<!-- e0 -->
<g id="node5" class="node">
<title>e0</title>
<polygon fill="#87cefa" stroke="#000000" points="266,-405 212,-405 212,-369 266,-369 266,-405"/>
<text text-anchor="middle" x="239" y="-382.8" font-family="Times,serif" font-size="14.00" fill="#000000">סבו</text>
</g>
<!-- e1 -->
<g id="node6" class="node">
<title>e1</title>
<polygon fill="#ffc0cb" stroke="#000000" points="360,-405 306,-405 306,-369 360,-369 360,-405"/>
<text text-anchor="middle" x="333" y="-382.8" font-family="Times,serif" font-size="14.00" fill="#000000">סבתו</text>
</g>
<!-- e0&#45;&#45;e1 -->
<!-- d2 -->
<g id="node7" class="node">
<title>d2</title>
<ellipse fill="#000000" stroke="#000000" cx="286" cy="-387" rx="1.8" ry="1.8"/>
</g>
<!-- e0&#45;&#45;d2 -->
<g id="edge4" class="edge">
<title>e0--d2</title>
<path fill="none" stroke="#000000" d="M266.1719,-387C272.1616,-387 278.1514,-387 284.1411,-387"/>
</g>
<!-- d2&#45;&#45;e1 -->
<g id="edge5" class="edge">
<title>d2--e1</title>
<path fill="none" stroke="#000000" d="M287.8359,-387C293.8343,-387 299.8326,-387 305.831,-387"/>
</g>
<!-- a0 -->
<g id="node9" class="node">
<title>a0</title>
<polygon fill="#87cefa" stroke="#000000" points="353,-290 299,-290 299,-254 353,-254 353,-290"/>
<text text-anchor="middle" x="326" y="-267.8" font-family="Times,serif" font-size="14.00" fill="#000000">אביו</text>
</g>
<!-- d2&#45;&#45;a0 -->
<g id="edge6" class="edge">
<title>d2--a0</title>
<path fill="none" stroke="#000000" d="M286.6943,-385.004C290.5535,-373.9088 309.554,-319.2823 319.6564,-290.238"/>
</g>
<!-- a2 -->
<g id="node11" class="node">
<title>a2</title>
<polygon fill="#87cefa" stroke="#000000" points="281.0018,-290 212.9982,-290 212.9982,-254 281.0018,-254 281.0018,-290"/>
<text text-anchor="middle" x="247" y="-267.8" font-family="Times,serif" font-size="14.00" fill="#000000">אחי אביו</text>
</g>
<!-- d2&#45;&#45;a2 -->
<g id="edge7" class="edge">
<title>d2--a2</title>
<path fill="none" stroke="#000000" d="M285.3231,-385.004C281.5604,-373.9088 263.0349,-319.2823 253.1851,-290.238"/>
</g>
<!-- d0 -->
<g id="node8" class="node">
<title>d0</title>
<ellipse fill="#000000" stroke="#000000" cx="373" cy="-272" rx="1.8" ry="1.8"/>
</g>
<!-- a1 -->
<g id="node10" class="node">
<title>a1</title>
<polygon fill="#ffc0cb" stroke="#000000" points="447,-290 393,-290 393,-254 447,-254 447,-290"/>
<text text-anchor="middle" x="420" y="-267.8" font-family="Times,serif" font-size="14.00" fill="#000000">אמו</text>
</g>
<!-- d0&#45;&#45;a1 -->
<g id="edge9" class="edge">
<title>d0--a1</title>
<path fill="none" stroke="#000000" d="M374.8359,-272C380.8343,-272 386.8326,-272 392.831,-272"/>
</g>
<!-- b0 -->
<g id="node14" class="node">
<title>b0</title>
<polygon fill="#87cefa" stroke="#000000" points="368,-145.5442 368,-160.4558 352.1838,-171 329.8162,-171 314,-160.4558 314,-145.5442 329.8162,-135 352.1838,-135 368,-145.5442"/>
<polygon fill="none" stroke="#000000" points="372,-143.4034 372,-162.5966 353.3949,-175 328.6051,-175 310,-162.5966 310,-143.4034 328.6051,-131 353.3949,-131 372,-143.4034"/>
<text text-anchor="middle" x="341" y="-148.8" font-family="Times,serif" font-size="14.00" fill="#000000">רב</text>
</g>
<!-- d0&#45;&#45;b0 -->
<g id="edge10" class="edge">
<title>d0--b0</title>
<path fill="none" stroke="#000000" d="M372.4446,-269.9345C369.4651,-258.8546 355.2044,-205.8226 346.9475,-175.1171"/>
</g>
<!-- a0&#45;&#45;d0 -->
<g id="edge8" class="edge">
<title>a0--d0</title>
<path fill="none" stroke="#000000" d="M353.1719,-272C359.1616,-272 365.1514,-272 371.1411,-272"/>
</g>
<!-- a0&#45;&#45;a1 -->
<!-- a2&#45;&#45;a0 -->
<!-- a5 -->
<g id="node12" class="node">
<title>a5</title>
<polygon fill="#ffc0cb" stroke="#000000" points="173.2336,-290 78.7664,-290 78.7664,-254 173.2336,-254 173.2336,-290"/>
<text text-anchor="middle" x="126" y="-267.8" font-family="Times,serif" font-size="14.00" fill="#000000">אשת אחי אביו</text>
</g>
<!-- a5&#45;&#45;a2 -->
<!-- d6 -->
<g id="node13" class="node">
<title>d6</title>
<ellipse fill="#000000" stroke="#000000" cx="193" cy="-272" rx="1.8" ry="1.8"/>
</g>
<!-- a5&#45;&#45;d6 -->
<g id="edge11" class="edge">
<title>a5--d6</title>
<path fill="none" stroke="#000000" d="M173.3711,-272C179.3007,-272 185.2302,-272 191.1598,-272"/>
</g>
<!-- d6&#45;&#45;a2 -->
<g id="edge12" class="edge">
<title>d6--a2</title>
<path fill="none" stroke="#000000" d="M195.1094,-272C201.0552,-272 207.001,-272 212.9468,-272"/>
</g>
<!-- b8 -->
<g id="node19" class="node">
<title>b8</title>
<polygon fill="#ffc0cb" stroke="#000000" points="220,-171 166,-171 166,-135 220,-135 220,-171"/>
<text text-anchor="middle" x="193" y="-148.8" font-family="Times,serif" font-size="14.00" fill="#000000">בת</text>
</g>
<!-- d6&#45;&#45;b8 -->
<g id="edge13" class="edge">
<title>d6--b8</title>
<path fill="none" stroke="#000000" d="M193,-269.9345C193,-258.3917 193,-201.3178 193,-171.3899"/>
</g>
<!-- b9 -->
<g id="node20" class="node">
<title>b9</title>
<polygon fill="#87cefa" stroke="#000000" points="292,-171 238,-171 238,-135 292,-135 292,-171"/>
<text text-anchor="middle" x="265" y="-148.8" font-family="Times,serif" font-size="14.00" fill="#000000">בן</text>
</g>
<!-- d6&#45;&#45;b9 -->
<g id="edge14" class="edge">
<title>d6--b9</title>
<path fill="none" stroke="#000000" d="M193.6861,-270.0533C195.2664,-265.6523 199.3834,-254.6473 204,-246 218.4592,-218.9166 238.4886,-189.6004 251.5912,-171.2726"/>
</g>
<!-- b3 -->
<g id="node15" class="node">
<title>b3</title>
<polygon fill="#ffc0cb" stroke="#000000" points="466,-171 412,-171 412,-135 466,-135 466,-171"/>
<text text-anchor="middle" x="439" y="-148.8" font-family="Times,serif" font-size="14.00" fill="#000000">אשתו</text>
</g>
<!-- b0&#45;&#45;b3 -->
<!-- d1 -->
<g id="node16" class="node">
<title>d1</title>
<ellipse fill="#000000" stroke="#000000" cx="392" cy="-153" rx="1.8" ry="1.8"/>
</g>
<!-- b0&#45;&#45;d1 -->
<g id="edge15" class="edge">
<title>b0--d1</title>
<path fill="none" stroke="#000000" d="M372.0781,-153C378.0962,-153 384.1143,-153 390.1323,-153"/>
</g>
<!-- d1&#45;&#45;b3 -->
<g id="edge16" class="edge">
<title>d1--b3</title>
<path fill="none" stroke="#000000" d="M393.8359,-153C399.8343,-153 405.8326,-153 411.831,-153"/>
</g>
<!-- c1 -->
<g id="node22" class="node">
<title>c1</title>
<polygon fill="#ffc0cb" stroke="#000000" points="455,-52 401,-52 401,-16 455,-16 455,-52"/>
<text text-anchor="middle" x="428" y="-29.8" font-family="Times,serif" font-size="14.00" fill="#000000">בתו</text>
</g>
<!-- d1&#45;&#45;c1 -->
<g id="edge17" class="edge">
<title>d1--c1</title>
<path fill="none" stroke="#000000" d="M392.6248,-150.9345C396.1168,-139.3917 413.3829,-82.3178 422.4367,-52.3899"/>
</g>
<!-- c2 -->
<g id="node23" class="node">
<title>c2</title>
<polygon fill="#87cefa" stroke="#000000" points="383,-52 329,-52 329,-16 383,-16 383,-52"/>
<text text-anchor="middle" x="356" y="-29.8" font-family="Times,serif" font-size="14.00" fill="#000000">בנו</text>
</g>
<!-- d1&#45;&#45;c2 -->
<g id="edge18" class="edge">
<title>d1--c2</title>
<path fill="none" stroke="#000000" d="M391.3752,-150.9345C387.8832,-139.3917 370.6171,-82.3178 361.5633,-52.3899"/>
</g>
<!-- d5 -->
<g id="node17" class="node">
<title>d5</title>
<ellipse fill="#000000" stroke="#000000" cx="146" cy="-153" rx="1.8" ry="1.8"/>
</g>
<!-- d5&#45;&#45;b8 -->
<g id="edge22" class="edge">
<title>d5--b8</title>
<path fill="none" stroke="#000000" d="M147.8359,-153C153.8343,-153 159.8326,-153 165.831,-153"/>
</g>
<!-- b7 -->
<g id="node18" class="node">
<title>b7</title>
<polygon fill="#87cefa" stroke="#000000" points="126,-171 72,-171 72,-135 126,-135 126,-171"/>
<text text-anchor="middle" x="99" y="-148.8" font-family="Times,serif" font-size="14.00" fill="#000000">חתן</text>
</g>
<!-- b7&#45;&#45;d5 -->
<g id="edge21" class="edge">
<title>b7--d5</title>
<path fill="none" stroke="#000000" d="M126.1719,-153C132.1616,-153 138.1514,-153 144.1411,-153"/>
</g>
<!-- b7&#45;&#45;b8 -->
<!-- b8&#45;&#45;b9 -->
<!-- b9&#45;&#45;b0 -->
<!-- c0 -->
<g id="node21" class="node">
<title>c0</title>
<polygon fill="#87cefa" stroke="#000000" points="549,-52 495,-52 495,-16 549,-16 549,-52"/>
<text text-anchor="middle" x="522" y="-29.8" font-family="Times,serif" font-size="14.00" fill="#000000">חתנו</text>
</g>
<!-- c1&#45;&#45;c0 -->
<!-- d4 -->
<g id="node24" class="node">
<title>d4</title>
<ellipse fill="#000000" stroke="#000000" cx="475" cy="-34" rx="1.8" ry="1.8"/>
</g>
<!-- c1&#45;&#45;d4 -->
<g id="edge19" class="edge">
<title>c1--d4</title>
<path fill="none" stroke="#000000" d="M455.1719,-34C461.1616,-34 467.1514,-34 473.1411,-34"/>
</g>
<!-- c2&#45;&#45;c1 -->
<!-- d4&#45;&#45;c0 -->
<g id="edge20" class="edge">
<title>d4--c0</title>
<path fill="none" stroke="#000000" d="M476.8359,-34C482.8343,-34 488.8326,-34 494.831,-34"/>
</g>
</g>
</svg>