<?xml version="1.0" encoding="UTF-8" standalone="no"?><!DOCTYPE svg PUBLIC "-//W3C//DTD SVG 1.1//EN" "http://www.w3.org/Graphics/SVG/1.1/DTD/svg11.dtd"><!-- Generated by graphviz version 2.40.1 (20161225.0304)
 --><!-- Title: G Pages: 1 --><svg xmlns="http://www.w3.org/2000/svg" xmlns:xlink="http://www.w3.org/1999/xlink" width="762pt" height="463pt" viewBox="0.00 0.00 762.00 462.88">
<g id="graph0" class="graph" transform="scale(1 1) rotate(0) translate(4 458.8768)">
<title>G</title>
<polygon fill="#ffffff" stroke="transparent" points="-4,4 -4,-458.8768 758,-458.8768 758,4 -4,4"/>
<g id="clust1" class="cluster">
<title>cluster_0</title>
<polygon fill="none" stroke="#000000" points="202,-361 202,-413 532,-413 532,-361 202,-361"/>
</g>
<g id="clust3" class="cluster">
<title>cluster_1</title>
<polygon fill="none" stroke="#000000" points="65,-246 65,-298 667,-298 667,-246 65,-246"/>
</g>
<g id="clust5" class="cluster">
<title>cluster_2</title>
<polygon fill="none" stroke="#000000" points="8,-123 8,-183 746,-183 746,-123 8,-123"/>
</g>
<g id="clust7" class="cluster">
<title>cluster_3</title>
<polygon fill="none" stroke="#000000" points="339,-8 339,-60 575,-60 575,-8 339,-8"/>
</g>
<!-- e0 -->
<g id="node1" class="node">
<title>e0</title>
<polygon fill="#87cefa" stroke="#000000" points="264,-405 210,-405 210,-369 264,-369 264,-405"/>
<text text-anchor="middle" x="237" y="-382.8" font-family="Times,serif" font-size="14.00" fill="#000000">סבו</text>
</g>
<!-- e1 -->
<g id="node2" class="node">
<title>e1</title>
<polygon fill="#ffc0cb" stroke="#000000" points="358,-405 304,-405 304,-369 358,-369 358,-405"/>
<text text-anchor="middle" x="331" y="-382.8" font-family="Times,serif" font-size="14.00" fill="#000000">סבתו</text>
</g>
<!-- e0&#45;&#45;e1 -->
<!-- d2 -->
<g id="node5" class="node">
<title>d2</title>
<ellipse fill="#000000" stroke="#000000" cx="284" cy="-387" rx="1.8" ry="1.8"/>
</g>
<!-- e0&#45;&#45;d2 -->
<g id="edge1" class="edge">
<title>e0--d2</title>
<path fill="none" stroke="#000000" d="M264.1719,-387C270.1616,-387 276.1514,-387 282.1411,-387"/>
</g>
<!-- e2 -->
<g id="node3" class="node">
<title>e2</title>
<polygon fill="#87cefa" stroke="#000000" points="430,-405 376,-405 376,-369 430,-369 430,-405"/>
<text text-anchor="middle" x="403" y="-382.8" font-family="Times,serif" font-size="14.00" fill="#000000">סבו</text>
</g>
<!-- e1&#45;&#45;e2 -->
<!-- e3 -->
<g id="node4" class="node">
<title>e3</title>
<polygon fill="#ffc0cb" stroke="#000000" points="524,-405 470,-405 470,-369 524,-369 524,-405"/>
<text text-anchor="middle" x="497" y="-382.8" font-family="Times,serif" font-size="14.00" fill="#000000">סבתו</text>
</g>
<!-- e2&#45;&#45;e3 -->
<!-- d3 -->
<g id="node6" class="node">
<title>d3</title>
<ellipse fill="#000000" stroke="#000000" cx="450" cy="-387" rx="1.8" ry="1.8"/>
</g>
<!-- e2&#45;&#45;d3 -->
<g id="edge5" class="edge">
<title>e2--d3</title>
<path fill="none" stroke="#000000" d="M430.1719,-387C436.1616,-387 442.1514,-387 448.1411,-387"/>
</g>
<!-- d2&#45;&#45;e1 -->
<g id="edge2" class="edge">
<title>d2--e1</title>
<path fill="none" stroke="#000000" d="M285.8359,-387C291.8343,-387 297.8326,-387 303.831,-387"/>
</g>
<!-- a0 -->
<g id="node8" class="node">
<title>a0</title>
<polygon fill="#87cefa" stroke="#000000" points="347,-290 293,-290 293,-254 347,-254 347,-290"/>
<text text-anchor="middle" x="320" y="-267.8" font-family="Times,serif" font-size="14.00" fill="#000000">אביו</text>
</g>
<!-- d2&#45;&#45;a0 -->
<g id="edge3" class="edge">
<title>d2--a0</title>
<path fill="none" stroke="#000000" d="M284.6248,-385.004C288.0981,-373.9088 305.1986,-319.2823 314.2907,-290.238"/>
</g>
<!-- a2 -->
<g id="node10" class="node">
<title>a2</title>
<polygon fill="#87cefa" stroke="#000000" points="275.0018,-290 206.9982,-290 206.9982,-254 275.0018,-254 275.0018,-290"/>
<text text-anchor="middle" x="241" y="-267.8" font-family="Times,serif" font-size="14.00" fill="#000000">אחי אביו</text>
</g>
<!-- d2&#45;&#45;a2 -->
<g id="edge4" class="edge">
<title>d2--a2</title>
<path fill="none" stroke="#000000" d="M283.2537,-385.004C279.105,-373.9088 258.6795,-319.2823 247.8194,-290.238"/>
</g>
<!-- d3&#45;&#45;e3 -->
<g id="edge6" class="edge">
<title>d3--e3</title>
<path fill="none" stroke="#000000" d="M451.8359,-387C457.8343,-387 463.8326,-387 469.831,-387"/>
</g>
<!-- a1 -->
<g id="node9" class="node">
<title>a1</title>
<polygon fill="#ffc0cb" stroke="#000000" points="441,-290 387,-290 387,-254 441,-254 441,-290"/>
<text text-anchor="middle" x="414" y="-267.8" font-family="Times,serif" font-size="14.00" fill="#000000">אמו</text>
</g>
<!-- d3&#45;&#45;a1 -->
<g id="edge7" class="edge">
<title>d3--a1</title>
<path fill="none" stroke="#000000" d="M449.3752,-385.004C445.9019,-373.9088 428.8014,-319.2823 419.7093,-290.238"/>
</g>
<!-- a3 -->
<g id="node11" class="node">
<title>a3</title>
<polygon fill="#87cefa" stroke="#000000" points="520.502,-290 459.498,-290 459.498,-254 520.502,-254 520.502,-290"/>
<text text-anchor="middle" x="490" y="-267.8" font-family="Times,serif" font-size="14.00" fill="#000000">אחי אמו</text>
</g>
<!-- d3&#45;&#45;a3 -->
<g id="edge8" class="edge">
<title>d3--a3</title>
<path fill="none" stroke="#000000" d="M450.6943,-385.004C454.5535,-373.9088 473.554,-319.2823 483.6564,-290.238"/>
</g>
<!-- d0 -->
<g id="node7" class="node">
<title>d0</title>
<ellipse fill="#000000" stroke="#000000" cx="367" cy="-272" rx="1.8" ry="1.8"/>
</g>
<!-- d0&#45;&#45;a1 -->
<g id="edge10" class="edge">
<title>d0--a1</title>
<path fill="none" stroke="#000000" d="M368.8359,-272C374.8343,-272 380.8326,-272 386.831,-272"/>
</g>
<!-- b0 -->
<g id="node16" class="node">
<title>b0</title>
<polygon fill="#87cefa" stroke="#000000" points="313.7341,-145.5442 313.7341,-160.4558 297.4878,-171 274.5122,-171 258.2659,-160.4558 258.2659,-145.5442 274.5122,-135 297.4878,-135 313.7341,-145.5442"/>
<polygon fill="none" stroke="#000000" points="317.75,-143.3763 317.75,-162.6237 298.6807,-175 273.3193,-175 254.25,-162.6237 254.25,-143.3763 273.3193,-131 298.6807,-131 317.75,-143.3763"/>
<text text-anchor="middle" x="286" y="-148.8" font-family="Times,serif" font-size="14.00" fill="#000000">הוא</text>
</g>
<!-- d0&#45;&#45;b0 -->
<g id="edge11" class="edge">
<title>d0--b0</title>
<path fill="none" stroke="#000000" d="M366.3537,-270.0312C364.8549,-265.585 360.8939,-254.4935 356,-246 340.463,-219.035 318.2875,-190.8577 303.083,-172.6846"/>
</g>
<!-- b2 -->
<g id="node17" class="node">
<title>b2</title>
<polygon fill="#87cefa" stroke="#000000" points="390,-171 336,-171 336,-135 390,-135 390,-171"/>
<text text-anchor="middle" x="363" y="-148.8" font-family="Times,serif" font-size="14.00" fill="#000000">אחיו</text>
</g>
<!-- d0&#45;&#45;b2 -->
<g id="edge12" class="edge">
<title>d0--b2</title>
<path fill="none" stroke="#000000" d="M366.9306,-269.9345C366.5426,-258.3917 364.6241,-201.3178 363.6181,-171.3899"/>
</g>
<!-- a0&#45;&#45;d0 -->
<g id="edge9" class="edge">
<title>a0--d0</title>
<path fill="none" stroke="#000000" d="M347.1719,-272C353.1616,-272 359.1514,-272 365.1411,-272"/>
</g>
<!-- a0&#45;&#45;a1 -->
<!-- a1&#45;&#45;a3 -->
<!-- a2&#45;&#45;a0 -->
<!-- a4 -->
<g id="node12" class="node">
<title>a4</title>
<polygon fill="#ffc0cb" stroke="#000000" points="658.9488,-290 561.0512,-290 561.0512,-254 658.9488,-254 658.9488,-290"/>
<text text-anchor="middle" x="610" y="-267.8" font-family="Times,serif" font-size="14.00" fill="#000000">אשת אחות אמו</text>
</g>
<!-- a3&#45;&#45;a4 -->
<!-- d7 -->
<g id="node15" class="node">
<title>d7</title>
<ellipse fill="#000000" stroke="#000000" cx="541" cy="-272" rx="1.8" ry="1.8"/>
</g>
<!-- a3&#45;&#45;d7 -->
<g id="edge17" class="edge">
<title>a3--d7</title>
<path fill="none" stroke="#000000" d="M520.6797,-272C526.8181,-272 532.9565,-272 539.095,-272"/>
</g>
<!-- a5 -->
<g id="node13" class="node">
<title>a5</title>
<polygon fill="#ffc0cb" stroke="#000000" points="167.2336,-290 72.7664,-290 72.7664,-254 167.2336,-254 167.2336,-290"/>
<text text-anchor="middle" x="120" y="-267.8" font-family="Times,serif" font-size="14.00" fill="#000000">אשת אחי אביו</text>
</g>
<!-- a5&#45;&#45;a2 -->
<!-- d6 -->
<g id="node14" class="node">
<title>d6</title>
<ellipse fill="#000000" stroke="#000000" cx="187" cy="-272" rx="1.8" ry="1.8"/>
</g>
<!-- a5&#45;&#45;d6 -->
<g id="edge13" class="edge">
<title>a5--d6</title>
<path fill="none" stroke="#000000" d="M167.3711,-272C173.3007,-272 179.2302,-272 185.1598,-272"/>
</g>
<!-- d6&#45;&#45;a2 -->
<g id="edge14" class="edge">
<title>d6--a2</title>
<path fill="none" stroke="#000000" d="M189.1094,-272C195.0552,-272 201.001,-272 206.9468,-272"/>
</g>
<!-- b8 -->
<g id="node25" class="node">
<title>b8</title>
<polygon fill="#ffc0cb" stroke="#000000" points="164,-171 110,-171 110,-135 164,-135 164,-171"/>
<text text-anchor="middle" x="137" y="-148.8" font-family="Times,serif" font-size="14.00" fill="#000000">בת</text>
</g>
<!-- d6&#45;&#45;b8 -->
<g id="edge15" class="edge">
<title>d6--b8</title>
<path fill="none" stroke="#000000" d="M186.2932,-270.3178C181.8302,-259.6959 157.3381,-201.4046 144.6415,-171.1869"/>
</g>
<!-- b9 -->
<g id="node26" class="node">
<title>b9</title>
<polygon fill="#87cefa" stroke="#000000" points="236,-171 182,-171 182,-135 236,-135 236,-171"/>
<text text-anchor="middle" x="209" y="-148.8" font-family="Times,serif" font-size="14.00" fill="#000000">בן</text>
</g>
<!-- d6&#45;&#45;b9 -->
<g id="edge16" class="edge">
<title>d6--b9</title>
<path fill="none" stroke="#000000" d="M187.3819,-269.9345C189.5158,-258.3917 200.0673,-201.3178 205.6002,-171.3899"/>
</g>
<!-- d7&#45;&#45;a4 -->
<g id="edge18" class="edge">
<title>d7--a4</title>
<path fill="none" stroke="#000000" d="M542.8867,-272C549.0038,-272 555.1209,-272 561.238,-272"/>
</g>
<!-- b5 -->
<g id="node21" class="node">
<title>b5</title>
<polygon fill="#ffc0cb" stroke="#000000" points="644,-171 590,-171 590,-135 644,-135 644,-171"/>
<text text-anchor="middle" x="617" y="-148.8" font-family="Times,serif" font-size="14.00" fill="#000000">בת</text>
</g>
<!-- d7&#45;&#45;b5 -->
<g id="edge19" class="edge">
<title>d7--b5</title>
<path fill="none" stroke="#000000" d="M541.6679,-270.0433C543.2108,-265.6222 547.2564,-254.5783 552,-246 567.1565,-218.5908 588.56,-189.3535 602.6039,-171.1323"/>
</g>
<!-- b6 -->
<g id="node22" class="node">
<title>b6</title>
<polygon fill="#87cefa" stroke="#000000" points="572,-171 518,-171 518,-135 572,-135 572,-171"/>
<text text-anchor="middle" x="545" y="-148.8" font-family="Times,serif" font-size="14.00" fill="#000000">בן</text>
</g>
<!-- d7&#45;&#45;b6 -->
<g id="edge20" class="edge">
<title>d7--b6</title>
<path fill="none" stroke="#000000" d="M541.0694,-269.9345C541.4574,-258.3917 543.3759,-201.3178 544.3819,-171.3899"/>
</g>
<!-- b0&#45;&#45;b2 -->
<!-- b3 -->
<g id="node18" class="node">
<title>b3</title>
<polygon fill="#ffc0cb" stroke="#000000" points="500.2336,-171 429.7664,-171 429.7664,-135 500.2336,-135 500.2336,-171"/>
<text text-anchor="middle" x="465" y="-148.8" font-family="Times,serif" font-size="14.00" fill="#000000">אשת אחיו</text>
</g>
<!-- b2&#45;&#45;b3 -->
<!-- d1 -->
<g id="node19" class="node">
<title>d1</title>
<ellipse fill="#000000" stroke="#000000" cx="410" cy="-153" rx="1.8" ry="1.8"/>
</g>
<!-- b2&#45;&#45;d1 -->
<g id="edge21" class="edge">
<title>b2--d1</title>
<path fill="none" stroke="#000000" d="M390.1719,-153C396.1616,-153 402.1514,-153 408.1411,-153"/>
</g>
<!-- b3&#45;&#45;b6 -->
<!-- d1&#45;&#45;b3 -->
<g id="edge22" class="edge">
<title>d1--b3</title>
<path fill="none" stroke="#000000" d="M412.1484,-153C417.9291,-153 423.7097,-153 429.4904,-153"/>
</g>
<!-- c1 -->
<g id="node29" class="node">
<title>c1</title>
<polygon fill="#ffc0cb" stroke="#000000" points="473,-52 419,-52 419,-16 473,-16 473,-52"/>
<text text-anchor="middle" x="446" y="-29.8" font-family="Times,serif" font-size="14.00" fill="#000000">בת</text>
</g>
<!-- d1&#45;&#45;c1 -->
<g id="edge23" class="edge">
<title>d1--c1</title>
<path fill="none" stroke="#000000" d="M410.6248,-150.9345C414.1168,-139.3917 431.3829,-82.3178 440.4367,-52.3899"/>
</g>
<!-- c2 -->
<g id="node30" class="node">
<title>c2</title>
<polygon fill="#87cefa" stroke="#000000" points="401,-52 347,-52 347,-16 401,-16 401,-52"/>
<text text-anchor="middle" x="374" y="-29.8" font-family="Times,serif" font-size="14.00" fill="#000000">בן</text>
</g>
<!-- d1&#45;&#45;c2 -->
<g id="edge24" class="edge">
<title>d1--c2</title>
<path fill="none" stroke="#000000" d="M409.3752,-150.9345C405.8832,-139.3917 388.6171,-82.3178 379.5633,-52.3899"/>
</g>
<!-- b4 -->
<g id="node20" class="node">
<title>b4</title>
<polygon fill="#87cefa" stroke="#ff0000" points="738,-171 684,-171 684,-135 738,-135 738,-171"/>
<text text-anchor="middle" x="711" y="-148.8" font-family="Times,serif" font-size="14.00" fill="#000000">חתן</text>
</g>
<!-- b5&#45;&#45;b4 -->
<!-- d8 -->
<g id="node27" class="node">
<title>d8</title>
<ellipse fill="#000000" stroke="#000000" cx="664" cy="-153" rx="1.8" ry="1.8"/>
</g>
<!-- b5&#45;&#45;d8 -->
<g id="edge29" class="edge">
<title>b5--d8</title>
<path fill="none" stroke="#000000" d="M644.1719,-153C650.1616,-153 656.1514,-153 662.1411,-153"/>
</g>
<!-- b6&#45;&#45;b5 -->
<!-- d5 -->
<g id="node23" class="node">
<title>d5</title>
<ellipse fill="#000000" stroke="#000000" cx="90" cy="-153" rx="1.8" ry="1.8"/>
</g>
<!-- d5&#45;&#45;b8 -->
<g id="edge28" class="edge">
<title>d5--b8</title>
<path fill="none" stroke="#000000" d="M91.8359,-153C97.8343,-153 103.8326,-153 109.831,-153"/>
</g>
<!-- b7 -->
<g id="node24" class="node">
<title>b7</title>
<polygon fill="#87cefa" stroke="#ff0000" points="70,-171 16,-171 16,-135 70,-135 70,-171"/>
<text text-anchor="middle" x="43" y="-148.8" font-family="Times,serif" font-size="14.00" fill="#000000">חתן</text>
</g>
<!-- b7&#45;&#45;d5 -->
<g id="edge27" class="edge">
<title>b7--d5</title>
<path fill="none" stroke="#000000" d="M70.1719,-153C76.1616,-153 82.1514,-153 88.1411,-153"/>
</g>
<!-- b7&#45;&#45;b8 -->
<!-- b8&#45;&#45;b9 -->
<!-- b9&#45;&#45;b0 -->
<!-- d8&#45;&#45;b4 -->
<g id="edge30" class="edge">
<title>d8--b4</title>
<path fill="none" stroke="#000000" d="M665.8359,-153C671.8343,-153 677.8326,-153 683.831,-153"/>
</g>
<!-- c0 -->
<g id="node28" class="node">
<title>c0</title>
<polygon fill="#87cefa" stroke="#ff0000" points="567,-52 513,-52 513,-16 567,-16 567,-52"/>
<text text-anchor="middle" x="540" y="-29.8" font-family="Times,serif" font-size="14.00" fill="#000000">חתן</text>
</g>
<!-- c1&#45;&#45;c0 -->
<!-- d4 -->
<g id="node31" class="node">
<title>d4</title>
<ellipse fill="#000000" stroke="#000000" cx="493" cy="-34" rx="1.8" ry="1.8"/>
</g>
<!-- c1&#45;&#45;d4 -->
<g id="edge25" class="edge">
<title>c1--d4</title>
<path fill="none" stroke="#000000" d="M473.1719,-34C479.1616,-34 485.1514,-34 491.1411,-34"/>
</g>
<!-- c2&#45;&#45;c1 -->
<!-- d4&#45;&#45;c0 -->
<g id="edge26" class="edge">
<title>d4--c0</title>
<path fill="none" stroke="#000000" d="M494.8359,-34C500.8343,-34 506.8326,-34 512.831,-34"/>
</g>
</g>
</svg>